<?xml version="1.0" standalone="no"?>
<!DOCTYPE svg PUBLIC "-//W3C//DTD SVG 20010904//EN"
 "http://www.w3.org/TR/2001/REC-SVG-20010904/DTD/svg10.dtd">
<svg version="1.0" xmlns="http://www.w3.org/2000/svg"
 width="1161.000000pt" height="421.000000pt" viewBox="0 0 1161.000000 421.000000"
 preserveAspectRatio="xMidYMid meet">

<g transform="translate(0.000000,421.000000) scale(0.100000,-0.100000)"
fill="#000000" stroke="none">
<path d="M909 4093 c-22 -38 -42 -97 -81 -243 -18 -70 -42 -150 -117 -396 -17
-55 -31 -108 -31 -118 0 -17 -23 -98 -86 -306 -14 -47 -55 -170 -90 -275 -35
-104 -73 -226 -84 -270 -12 -44 -30 -98 -41 -121 -10 -22 -19 -45 -19 -51 0
-6 -13 -44 -29 -85 -36 -88 -121 -360 -121 -385 0 -19 -57 -192 -86 -258 -20
-48 -43 -140 -44 -176 0 -26 15 -39 46 -39 18 0 58 87 79 170 9 36 27 90 40
120 13 30 35 98 49 150 32 123 80 283 102 340 9 25 20 65 24 90 4 25 15 72 25
105 9 33 23 83 30 110 7 28 29 89 49 136 20 47 52 148 71 224 20 76 46 165 59
199 13 34 27 72 31 86 3 14 31 102 60 195 30 94 63 202 74 240 11 39 31 111
44 160 14 50 28 106 32 125 3 19 16 74 28 123 17 70 24 87 39 87 10 0 22 -8
25 -17 4 -10 23 -39 42 -65 20 -26 52 -68 71 -95 19 -26 43 -55 52 -64 10 -9
18 -19 18 -23 0 -9 122 -186 172 -251 21 -27 62 -81 90 -120 28 -38 74 -97
103 -130 28 -33 62 -76 75 -95 14 -19 41 -52 62 -73 33 -33 39 -36 61 -26 38
17 124 122 173 209 24 44 77 123 116 176 40 53 91 122 113 154 22 31 58 79 80
105 22 27 51 62 65 79 14 17 38 47 52 66 58 75 127 143 132 129 67 -188 116
-342 116 -366 0 -15 6 -23 18 -23 14 0 14 -2 3 -9 -11 -7 -12 -17 -3 -53 19
-77 28 -122 50 -258 5 -27 12 -44 20 -42 7 1 12 -2 12 -8 0 -5 -4 -10 -10 -10
-5 0 -10 -10 -10 -21 0 -24 52 -214 74 -269 8 -19 21 -68 31 -109 9 -41 25
-97 36 -125 10 -28 19 -61 19 -73 0 -11 9 -45 19 -75 11 -29 22 -70 26 -90 3
-21 10 -38 15 -38 6 0 10 -13 10 -28 0 -16 11 -61 24 -100 14 -40 23 -72 21
-72 -2 0 1 -15 6 -32 6 -18 12 -55 14 -82 3 -27 17 -77 33 -110 16 -34 37 -92
47 -129 9 -37 23 -74 30 -80 6 -7 10 -18 8 -24 -3 -7 7 -48 21 -91 14 -43 39
-129 55 -191 31 -118 52 -161 77 -161 22 0 26 21 14 71 -7 24 -14 59 -17 77
-3 18 -9 35 -14 38 -5 3 -9 15 -9 28 0 26 -44 206 -66 275 -8 24 -17 61 -19
83 -3 21 -7 55 -10 77 -2 21 -13 62 -24 92 -10 30 -26 79 -34 109 -8 30 -27
96 -40 145 -14 50 -28 99 -30 110 -18 76 -61 228 -77 270 -46 121 -106 351
-115 441 -4 32 -17 95 -30 139 -56 186 -66 227 -93 356 -16 74 -36 146 -45
160 -9 13 -19 44 -23 69 -4 25 -13 54 -21 66 -7 11 -24 53 -38 94 -34 101 -39
105 -86 78 -22 -12 -52 -36 -67 -52 -57 -64 -117 -140 -129 -162 -13 -26 -56
-82 -114 -148 -65 -74 -173 -220 -213 -289 -22 -37 -43 -67 -48 -67 -4 0 -8
-4 -8 -9 0 -5 -22 -42 -50 -82 -27 -40 -50 -79 -50 -86 0 -7 -5 -13 -12 -13
-15 0 -145 124 -183 175 -16 22 -46 57 -67 79 -21 21 -38 42 -38 47 0 5 -15
26 -34 47 -19 21 -50 59 -68 84 -18 25 -49 67 -68 93 -19 27 -57 73 -84 104
-27 31 -61 75 -76 98 -51 80 -174 213 -196 213 -7 0 -22 -17 -35 -37z m1563
-15 c-18 -18 -14 -31 7 -25 14 3 17 0 13 -15 -3 -14 -10 -17 -26 -12 -11 4
-23 8 -25 10 -7 7 22 54 33 54 6 0 5 -5 -2 -12z m-1461 -35 c13 -16 12 -17 -3
-4 -10 7 -18 15 -18 17 0 8 8 3 21 -13z m1423 -35 c-3 -5 -11 -8 -17 -8 -8 0
-8 3 2 9 9 6 10 11 2 15 -6 4 -11 12 -11 19 0 6 6 2 14 -8 8 -11 12 -23 10
-27z m76 -18 c0 -5 -4 -10 -10 -10 -5 0 -10 5 -10 10 0 6 5 10 10 10 6 0 10
-4 10 -10z m-140 -4 c0 -2 -7 -9 -15 -16 -13 -11 -14 -10 -9 4 5 14 24 23 24
12z m184 -113 c-21 -21 -43 -1 -24 22 9 11 16 12 26 4 11 -9 11 -14 -2 -26z
m-1368 -54 c8 -14 -10 -11 -32 6 -18 13 -18 14 4 8 12 -3 25 -9 28 -14z m1380
7 c16 -17 18 -26 4 -26 -5 0 -14 9 -20 20 -12 23 -5 26 16 6z m-1729 -38 c-3
-8 -6 -5 -6 6 -1 11 2 17 5 13 3 -3 4 -12 1 -19z m1743 -18 c0 -5 -2 -10 -4
-10 -3 0 -8 5 -11 10 -3 6 -1 10 4 10 6 0 11 -4 11 -10z m27 -50 c-2 -27 -3
-28 -14 -13 -17 23 -16 43 2 43 10 0 14 -9 12 -30z m33 -86 c0 -8 -4 -14 -10
-14 -5 0 -10 9 -10 21 0 11 5 17 10 14 6 -3 10 -13 10 -21z m7 -66 c-3 -8 -6
-5 -6 6 -1 11 2 17 5 13 3 -3 4 -12 1 -19z m-20 -20 c-3 -8 -6 -5 -6 6 -1 11
2 17 5 13 3 -3 4 -12 1 -19z m26 -25 c-7 -3 -13 -12 -13 -20 0 -9 -2 -14 -5
-11 -4 3 -3 18 1 33 5 20 9 24 18 14 8 -8 8 -13 -1 -16z m6 -90 c0 -25 -1 -26
-9 -8 -12 27 -12 35 0 35 6 0 10 -12 9 -27z m31 -16 c0 -5 -4 -5 -10 -2 -5 3
-10 14 -10 23 0 15 2 15 10 2 5 -8 10 -19 10 -23z m-1210 -33 c0 -8 -4 -12
-10 -9 -5 3 -10 10 -10 16 0 5 5 9 10 9 6 0 10 -7 10 -16z m1177 -6 c-3 -8 -6
-5 -6 6 -1 11 2 17 5 13 3 -3 4 -12 1 -19z m27 7 c3 -8 1 -15 -4 -15 -6 0 -10
7 -10 15 0 8 2 15 4 15 2 0 6 -7 10 -15z m36 -59 c0 -15 -42 -14 -47 1 -2 6 4
13 14 15 23 6 33 0 33 -16z m-13 -32 c-3 -3 -12 -4 -19 -1 -8 3 -5 6 6 6 11 1
17 -2 13 -5z m27 -30 c3 -8 2 -12 -4 -9 -6 3 -10 10 -10 16 0 14 7 11 14 -7z
m-17 -60 c-9 -9 -28 6 -21 18 4 6 10 6 17 -1 6 -6 8 -13 4 -17z m-1083 -20 c3
-8 2 -12 -4 -9 -6 3 -10 10 -10 16 0 14 7 11 14 -7z m1089 -28 c23 -17 22 -32
-3 -39 -13 -3 -20 0 -20 8 0 7 -3 20 -6 29 -7 19 5 20 29 2z m8 -99 c-8 -8
-11 -7 -11 4 0 20 13 34 18 19 3 -7 -1 -17 -7 -23z m-2101 -33 c0 -8 -5 -12
-10 -9 -6 4 -8 11 -5 16 9 14 15 11 15 -7z m2169 -73 c0 -16 -3 -20 -6 -11 -8
21 -36 39 -48 33 -5 -4 -1 3 10 14 18 19 21 20 33 5 6 -9 12 -27 11 -41z
m-2192 7 c-3 -8 -6 -5 -6 6 -1 11 2 17 5 13 3 -3 4 -12 1 -19z m2177 -34 c3
-9 6 -27 6 -40 0 -13 5 -24 11 -24 7 0 8 -11 4 -29 -5 -22 -2 -32 12 -40 14
-8 15 -12 6 -22 -14 -14 -28 14 -43 86 -5 22 -12 50 -15 63 -8 25 9 31 19 6z
m76 -183 c0 -11 -4 -9 -14 4 -8 11 -12 24 -9 28 7 11 23 -12 23 -32z m-36 -17
c3 -8 2 -12 -4 -9 -6 3 -10 10 -10 16 0 14 7 11 14 -7z m50 -20 c3 -8 2 -12
-4 -9 -6 3 -10 10 -10 16 0 14 7 11 14 -7z m4 -65 c-16 -10 -25 -2 -34 34 l-7
29 28 -28 c21 -21 24 -29 13 -35z m23 -41 c3 -25 -3 -41 -19 -57 -15 -15 -15
-14 -9 2 4 10 7 30 7 43 0 24 19 35 21 12z m26 -80 c-3 -8 -6 -5 -6 6 -1 11 2
17 5 13 3 -3 4 -12 1 -19z m-17 -12 c0 -8 -7 -16 -15 -20 -10 -4 -15 1 -15 14
0 11 7 20 15 20 8 0 15 -6 15 -14z m8 -50 c0 -21 -3 -23 -14 -11 -16 16 -19
29 -4 20 6 -3 10 -1 10 4 0 6 2 11 4 11 2 0 4 -11 4 -24z m42 -55 c0 -32 -6
-24 -14 19 -4 25 -3 31 4 20 5 -8 10 -26 10 -39z m-21 -8 c2 -2 -3 -3 -11 -3
-9 0 -19 7 -22 16 -6 15 -4 15 11 3 10 -7 20 -15 22 -16z m7 -71 c-4 -3 -11 0
-16 8 -15 24 -11 33 6 15 9 -9 13 -19 10 -23z m39 -91 c3 -5 1 -12 -5 -16 -5
-3 -10 1 -10 9 0 18 6 21 15 7z m5 -55 c0 -3 -4 -8 -10 -11 -5 -3 -10 -1 -10
4 0 6 5 11 10 11 6 0 10 -2 10 -4z m67 -298 c-3 -8 -6 -5 -6 6 -1 11 2 17 5
13 3 -3 4 -12 1 -19z m87 -194 c8 -22 -4 -40 -15 -23 -11 18 -11 39 0 39 5 0
12 -7 15 -16z m78 -309 c3 -13 1 -22 -3 -19 -9 5 -13 44 -5 44 2 0 6 -11 8
-25z"/>
<path d="M4540 4050 c-17 -34 -42 -93 -56 -133 -15 -40 -34 -88 -44 -107 -48
-91 -120 -270 -120 -295 0 -9 -7 -33 -16 -53 -22 -52 -28 -68 -54 -147 -13
-38 -32 -90 -42 -114 -11 -24 -26 -73 -33 -110 -8 -36 -23 -91 -33 -121 -44
-129 -191 -509 -232 -601 -17 -36 -30 -71 -30 -77 0 -7 -4 -20 -9 -30 -4 -9
-19 -51 -32 -92 -13 -41 -32 -93 -44 -115 -38 -76 -83 -192 -120 -315 -21 -70
-62 -180 -73 -193 -5 -7 -12 -29 -16 -49 -4 -20 -13 -49 -21 -64 -21 -41 5
-82 44 -69 20 6 41 54 66 155 19 72 81 240 96 254 5 6 9 19 9 30 0 27 21 84
42 116 9 14 26 57 38 95 44 140 73 221 100 275 15 30 40 98 55 150 15 52 39
117 52 144 28 55 54 136 48 146 -5 8 32 129 44 144 5 6 14 28 21 49 l12 38
301 -2 c166 -1 311 -5 321 -9 11 -3 39 -3 63 0 41 7 46 5 68 -24 13 -17 28
-51 35 -76 6 -25 19 -61 27 -80 34 -79 42 -97 61 -150 11 -30 41 -120 67 -200
52 -158 89 -267 130 -375 66 -175 87 -234 106 -290 10 -33 22 -67 26 -75 7
-18 49 -167 63 -225 34 -144 60 -155 146 -67 24 25 23 46 -7 97 -10 17 -24 55
-32 85 -8 30 -25 71 -39 91 -14 21 -29 50 -35 65 -6 16 -25 65 -43 109 -17 44
-58 159 -90 255 -66 197 -82 240 -93 257 -4 7 -27 68 -51 135 -25 68 -63 175
-86 238 -23 63 -54 156 -68 205 -13 50 -30 104 -37 120 -7 17 -34 95 -59 175
-26 80 -69 206 -95 280 -27 74 -66 189 -86 255 -21 66 -50 147 -65 180 -15 33
-33 78 -40 100 -17 56 -37 75 -76 75 -31 0 -36 -5 -64 -60z m76 31 c-3 -5 -14
-11 -25 -14 -14 -3 -18 -1 -14 9 3 8 14 14 25 14 10 0 17 -4 14 -9z m29 -21
c3 -5 1 -10 -4 -10 -6 0 -11 5 -11 10 0 6 2 10 4 10 3 0 8 -4 11 -10z m-22
-77 c40 -86 67 -160 83 -233 8 -36 21 -82 29 -103 8 -20 15 -45 15 -55 0 -9
13 -45 30 -80 16 -35 29 -66 28 -70 -1 -4 2 -19 6 -34 9 -30 21 -36 29 -15 2
6 7 9 11 5 4 -3 2 -16 -4 -28 -8 -15 -9 -29 -2 -44 11 -24 39 -92 76 -181 16
-39 30 -60 40 -59 9 1 16 -4 16 -12 0 -8 -8 -14 -17 -15 -87 -2 -733 6 -741
10 -1 0 6 18 16 39 11 20 34 84 52 142 17 58 43 128 57 155 14 28 34 74 44
104 10 30 22 59 27 65 4 6 18 38 31 71 13 33 36 92 51 130 15 39 33 95 40 125
16 71 40 140 49 140 4 0 19 -26 34 -57z m12 47 c3 -5 -1 -10 -10 -10 -9 0 -13
5 -10 10 3 6 8 10 10 10 2 0 7 -4 10 -10z m30 -39 c-3 -6 -11 -8 -17 -5 -6 4
-5 9 3 15 16 10 23 4 14 -10z m-145 -87 c-7 -24 -17 -44 -21 -44 -12 0 -11 5
6 47 8 19 16 45 16 57 1 18 2 19 6 2 3 -10 -1 -38 -7 -62z m170 37 c0 -8 7
-23 17 -33 14 -16 14 -18 0 -18 -9 0 -18 12 -22 31 -5 23 -9 28 -16 18 -10
-17 -12 1 -3 26 5 13 8 14 15 3 5 -7 9 -19 9 -27z m20 -87 c0 -8 -5 -12 -10
-9 -6 4 -8 11 -5 16 9 14 15 11 15 -7z m-210 -24 c0 -5 -7 -10 -16 -10 -10 0
-14 -5 -10 -15 3 -8 1 -28 -5 -43 -7 -16 -13 -22 -16 -14 -3 7 0 19 7 27 6 8
9 18 6 24 -9 14 4 41 20 41 8 0 14 -4 14 -10z m255 -63 c4 -40 2 -45 -9 -35
-8 7 -11 17 -8 22 3 5 5 22 4 38 -1 45 7 28 13 -25z m-313 -71 c-6 -11 -14
-32 -17 -46 -10 -40 -39 -90 -49 -87 -17 6 -18 27 -1 27 20 0 53 72 35 78 -7
3 -3 10 9 19 22 15 29 43 10 43 -5 0 -7 5 -3 11 13 21 27 -21 16 -45z m343
-44 c-4 -21 -10 -31 -13 -22 -3 8 -9 18 -15 21 -12 8 1 31 14 24 5 -4 9 1 9
10 0 9 -4 13 -10 10 -6 -4 -7 1 -3 11 11 30 26 -13 18 -54z m-385 -11 c0 -6
-4 -13 -10 -16 -5 -3 -10 1 -10 9 0 9 5 16 10 16 6 0 10 -4 10 -9z m416 -94
c-2 -7 -5 -2 -5 10 -1 12 -5 25 -11 28 -5 3 -10 18 -10 33 1 23 3 20 16 -16 8
-24 13 -49 10 -55z m-13 -5 c6 -8 14 -9 21 -3 8 7 12 3 14 -15 1 -15 -4 -24
-12 -24 -17 0 -46 43 -45 67 0 14 2 15 6 3 3 -8 10 -21 16 -28z m-443 -1 c0
-5 3 -18 6 -28 6 -15 4 -16 -6 -6 -16 15 -22 43 -9 43 5 0 9 -4 9 -9z m-10
-69 c0 -13 -12 -22 -22 -16 -10 6 -1 24 13 24 5 0 9 -4 9 -8z m484 -24 c-6 -9
-3 -9 9 1 15 12 18 10 27 -14 15 -41 12 -51 -9 -28 -11 12 -25 23 -32 25 -11
4 -5 28 7 28 3 0 2 -6 -2 -12z m-517 -50 c-3 -7 -5 -2 -5 12 0 14 2 19 5 13 2
-7 2 -19 0 -25z m583 -53 c0 -5 -5 -3 -10 5 -5 8 -10 20 -10 25 0 6 5 3 10 -5
5 -8 10 -19 10 -25z m-609 -21 c-9 -28 -9 -29 -10 -3 -1 14 2 29 6 32 11 12
13 2 4 -29z m619 -9 c9 -10 9 -15 1 -15 -6 0 -11 -4 -11 -10 0 -5 5 -9 11 -7
5 1 16 -15 23 -35 8 -21 10 -38 5 -38 -5 0 -9 7 -9 16 0 14 -2 15 -17 3 -15
-13 -15 -12 -5 8 13 24 16 40 5 30 -5 -6 -43 45 -43 58 0 11 28 4 40 -10z
m-651 -82 c-15 -47 -38 -83 -52 -83 -5 0 -3 8 5 18 20 23 48 86 49 109 0 10 3
13 6 6 2 -7 -1 -30 -8 -50z m701 -59 c0 -8 -4 -12 -10 -9 -5 3 -10 10 -10 16
0 5 5 9 10 9 6 0 10 -7 10 -16z m6 -51 c-10 -10 -19 5 -10 18 6 11 8 11 12 0
2 -7 1 -15 -2 -18z m-756 -19 c0 -8 -4 -12 -10 -9 -5 3 -10 10 -10 16 0 5 5 9
10 9 6 0 10 -7 10 -16z m336 -77 c11 -11 82 -8 89 3 3 6 43 9 88 9 45 -1 74
-3 65 -6 -30 -8 -20 -25 10 -19 56 12 211 14 215 2 6 -16 -13 -31 -45 -34 -30
-3 -39 14 -10 20 10 3 3 6 -16 9 -25 4 -32 2 -28 -8 4 -9 -4 -13 -24 -13 -17
0 -30 -4 -30 -10 0 -5 -10 -10 -22 -9 -22 0 -22 1 -3 9 14 6 16 9 5 10 -22 3
-22 3 -59 -4 -26 -5 -32 -3 -28 8 4 10 0 12 -15 8 -11 -2 -23 0 -27 6 -5 8
-17 9 -38 3 -17 -5 -59 -7 -94 -6 -35 2 -86 3 -113 3 -27 1 -52 6 -56 12 -4 7
-16 10 -26 8 -16 -4 -14 -7 11 -18 17 -7 33 -13 38 -12 4 1 7 -2 7 -8 0 -16
-35 -10 -116 21 -13 4 -26 3 -33 -4 -9 -9 -14 -8 -21 3 -9 14 -11 12 -9 -7 0
-10 -64 -24 -71 -16 -3 3 1 8 8 10 6 3 12 11 12 18 0 8 10 15 23 17 40 7 306
3 313 -5z m-369 -49 c-3 -8 -6 -5 -6 6 -1 11 2 17 5 13 3 -3 4 -12 1 -19z
m338 12 c4 -6 -5 -10 -20 -10 -15 0 -24 4 -20 10 3 6 12 10 20 10 8 0 17 -4
20 -10z m203 -5 c-8 -8 -77 -9 -85 -2 -3 4 15 7 42 7 27 0 46 -2 43 -5z m312
-25 c0 -11 -4 -20 -10 -20 -5 0 -10 9 -10 20 0 11 5 20 10 20 6 0 10 -9 10
-20z m-40 -21 c0 -24 -23 -21 -28 4 -2 10 3 17 12 17 10 0 16 -9 16 -21z
m-833 -11 c-3 -8 -6 -5 -6 6 -1 11 2 17 5 13 3 -3 4 -12 1 -19z m886 -32 c3
-7 -6 -11 -22 -10 -37 3 -37 3 -23 12 18 12 40 11 45 -2z m37 -101 c0 -7 9
-35 21 -62 11 -26 21 -57 23 -68 1 -11 9 -34 19 -52 19 -36 24 -68 6 -43 -8
11 -12 12 -16 3 -9 -23 -22 -13 -32 25 -7 24 -7 38 -1 40 15 5 -1 54 -24 73
-18 15 -19 19 -6 35 12 15 13 16 1 9 -11 -6 -13 -4 -8 8 5 14 2 16 -18 11 -15
-4 -25 -2 -25 5 0 6 6 11 14 11 8 0 17 7 20 16 7 17 26 10 26 -11z m-988 -67
c-7 -7 -12 -23 -12 -36 0 -13 -4 -21 -9 -17 -5 3 -13 -4 -16 -16 -4 -11 -9
-18 -11 -16 -8 8 37 97 49 97 7 0 7 -4 -1 -12z m998 -48 c0 -5 -4 -10 -10 -10
-5 0 -10 5 -10 10 0 6 5 10 10 10 6 0 10 -4 10 -10z m-1017 -35 c-3 -9 -8 -14
-10 -11 -3 3 -2 9 2 15 9 16 15 13 8 -4z m-21 -29 c6 4 8 1 4 -7 -3 -8 -9 -22
-12 -31 -4 -10 -10 -18 -14 -18 -8 0 -25 -49 -22 -62 1 -5 -5 -8 -12 -8 -13 0
-13 5 1 38 8 20 18 42 21 47 4 6 7 15 8 20 4 35 6 40 11 27 2 -6 9 -9 15 -6z
m1120 -81 c9 -12 -11 -37 -23 -29 -14 8 -11 44 4 42 6 -2 15 -7 19 -13z
m-1186 -100 c-9 -21 -16 -51 -16 -67 0 -17 -6 -31 -16 -35 -24 -9 -32 9 -17
37 l15 25 -6 -27 c-4 -16 -2 -28 4 -28 5 0 10 20 10 45 0 25 4 45 9 45 5 0 12
12 15 26 4 15 9 24 12 21 3 -3 -2 -22 -10 -42z m1209 26 c0 -8 -6 -16 -12 -18
-7 -3 -13 1 -13 7 0 7 -7 10 -15 6 -8 -3 -15 0 -15 7 0 8 12 13 28 12 16 0 27
-5 27 -14z m30 -71 c10 -22 15 -43 11 -47 -4 -4 -9 3 -13 15 -3 12 -9 22 -13
22 -4 0 -10 11 -12 25 -8 38 7 30 27 -15z m-45 15 c0 -8 -2 -15 -4 -15 -2 0
-6 7 -10 15 -3 8 -1 15 4 15 6 0 10 -7 10 -15z m22 -75 c5 -33 -6 -28 -17 8
-3 12 -2 22 3 22 5 0 12 -14 14 -30z m-1291 -43 c-8 -8 -11 -7 -11 4 0 20 13
34 18 19 3 -7 -1 -17 -7 -23z m10 -30 c-10 -9 -11 -8 -5 6 3 10 9 15 12 12 3
-3 0 -11 -7 -18z m1313 8 c3 -8 2 -23 -1 -32 -6 -15 -7 -15 -14 3 -11 27 -11
44 0 44 5 0 11 -7 15 -15z m-1336 -28 c1 -17 -5 -49 -14 -70 -22 -48 -29 -42
-9 7 9 21 13 46 10 57 -5 15 0 39 8 39 1 0 3 -15 5 -33z m1352 -54 c0 -22 -2
-25 -10 -13 -13 20 -13 40 0 40 6 0 10 -12 10 -27z m64 -29 c9 -22 8 -24 -9
-18 -8 4 -15 12 -15 20 0 19 16 18 24 -2z m-1454 -46 c0 -7 -8 -22 -17 -33
-14 -18 -15 -18 -9 -2 3 10 6 25 6 33 0 8 5 14 10 14 6 0 10 -6 10 -12z m1461
-11 c-10 -9 -11 -8 -5 6 3 10 9 15 12 12 3 -3 0 -11 -7 -18z m-15 -54 c-10
-10 -19 5 -10 18 6 11 8 11 12 0 2 -7 1 -15 -2 -18z m-1496 -33 c-6 -12 -14
-20 -17 -17 -2 3 1 14 8 26 17 26 24 19 9 -9z m27 8 c-3 -8 -6 -5 -6 6 -1 11
2 17 5 13 3 -3 4 -12 1 -19z m1488 -9 c11 -16 1 -19 -13 -3 -7 8 -8 14 -3 14
5 0 13 -5 16 -11z m-1505 -39 c-6 -12 -14 -19 -17 -17 -2 3 1 15 7 27 6 12 14
19 17 17 2 -3 -1 -15 -7 -27z m-50 -49 c-20 -57 -37 -83 -26 -41 10 35 38 101
42 97 2 -2 -5 -27 -16 -56z m1570 39 c9 -16 8 -18 -5 -14 -8 4 -15 12 -15 20
0 20 7 17 20 -6z m-1549 -47 c-12 -20 -14 -14 -5 12 4 9 9 14 11 11 3 -2 0
-13 -6 -23z m1569 -13 c0 -11 -2 -20 -4 -20 -2 0 -6 9 -9 20 -3 11 -1 20 4 20
5 0 9 -9 9 -20z m-1588 -42 c-7 -7 -12 -20 -12 -30 0 -10 -7 -18 -16 -18 -13
0 -12 5 6 30 12 17 24 30 28 30 3 0 1 -5 -6 -12z m1608 -10 c0 -16 -3 -19 -11
-11 -6 6 -8 16 -5 22 11 17 16 13 16 -11z m19 -52 c-9 -8 -10 -7 -5 7 3 10 7
24 7 30 1 7 3 4 6 -7 3 -10 -1 -23 -8 -30z m-1661 -26 c-7 -11 -16 -20 -20
-20 -11 0 -10 9 5 25 18 21 29 18 15 -5z m1716 -5 c3 -8 1 -15 -4 -15 -6 0
-10 7 -10 15 0 8 2 15 4 15 2 0 6 -7 10 -15z m-30 -46 c-8 -14 -24 -10 -24 6
0 9 6 12 15 9 8 -4 12 -10 9 -15z m-1717 -35 c-3 -3 -12 -4 -19 -1 -8 3 -5 6
6 6 11 1 17 -2 13 -5z m1768 -37 c0 -26 -20 -25 -23 2 -3 16 1 22 10 19 7 -3
13 -12 13 -21z m32 -11 c-4 -9 1 -16 11 -19 12 -3 9 -6 -11 -12 -36 -10 -45 0
-21 24 23 24 28 25 21 7z m-1828 -30 c-9 -19 -15 -23 -21 -14 -4 7 -8 20 -8
28 0 13 1 13 10 0 8 -12 10 -12 16 3 3 10 8 16 11 14 2 -3 -2 -16 -8 -31z
m1778 -53 c-3 -10 -5 -4 -5 12 0 17 2 24 5 18 2 -7 2 -21 0 -30z m28 17 c3 -5
1 -10 -4 -10 -6 0 -11 5 -11 10 0 6 2 10 4 10 3 0 8 -4 11 -10z m-1860 -50
c-4 -12 -9 -19 -12 -17 -3 3 -2 15 2 27 4 12 9 19 12 17 3 -3 2 -15 -2 -27z
m1870 20 c3 -5 -1 -10 -10 -10 -9 0 -13 5 -10 10 3 6 8 10 10 10 2 0 7 -4 10
-10z m39 -26 c9 -3 16 -10 16 -16 0 -5 -4 -7 -9 -3 -15 8 -22 -11 -15 -40 6
-25 36 -37 33 -12 -1 6 -1 21 0 32 1 15 4 16 13 7 10 -10 10 -15 0 -21 -11 -7
-10 -9 2 -14 18 -7 22 -42 6 -52 -5 -3 -10 -1 -10 4 0 17 -37 13 -44 -5 -10
-27 -20 -7 -18 36 2 30 -1 40 -13 40 -18 0 -19 5 -5 31 11 20 19 23 44 13z
m-1924 -104 c5 8 10 10 10 4 0 -6 -7 -17 -15 -24 -8 -7 -15 -10 -15 -7 0 3 -3
14 -6 24 -5 15 -4 16 5 3 10 -13 12 -13 21 0z m1950 -31 c0 -6 -4 -7 -10 -4
-5 3 -10 11 -10 16 0 6 5 7 10 4 6 -3 10 -11 10 -16z"/>
<path d="M5110 2601 c0 -12 5 -21 10 -21 6 0 10 6 10 14 0 8 -4 18 -10 21 -5
3 -10 -3 -10 -14z"/>
<path d="M6766 4065 c-14 -11 -56 -132 -108 -310 -11 -38 -24 -80 -28 -91 -5
-12 -16 -52 -25 -90 -10 -38 -27 -100 -40 -139 -13 -38 -27 -86 -31 -105 -4
-19 -9 -39 -11 -45 -1 -5 -12 -41 -22 -80 -24 -82 -43 -145 -71 -235 -11 -36
-27 -87 -35 -115 -8 -27 -33 -115 -56 -194 -23 -79 -44 -161 -46 -182 -3 -21
-12 -44 -19 -50 -8 -6 -14 -20 -14 -30 0 -18 -17 -87 -46 -184 -8 -27 -21 -73
-28 -102 -8 -28 -17 -56 -20 -61 -5 -8 -30 -102 -95 -357 -5 -16 -16 -48 -26
-70 -10 -22 -21 -58 -26 -80 -5 -22 -14 -66 -20 -98 -14 -64 -6 -84 29 -73 34
11 101 147 102 206 0 14 12 70 26 125 14 55 32 129 40 165 13 61 53 191 124
410 31 92 48 157 71 270 7 30 17 64 24 75 11 17 47 140 104 355 7 25 12 54 12
64 0 11 7 24 15 31 8 6 28 60 43 120 16 61 36 130 45 154 9 24 30 110 46 192
16 81 36 161 44 178 9 16 16 39 16 50 0 11 6 40 14 63 8 24 19 62 26 86 6 24
17 42 25 42 7 0 35 -30 60 -67 26 -38 69 -95 97 -128 27 -33 59 -78 70 -100
12 -22 29 -46 39 -53 10 -7 28 -33 41 -58 12 -25 30 -50 40 -55 9 -5 27 -27
39 -49 13 -22 26 -40 31 -40 4 0 8 -7 8 -15 0 -8 9 -19 20 -25 11 -6 20 -16
20 -23 0 -7 12 -23 25 -36 14 -13 25 -32 25 -42 0 -10 7 -19 15 -19 8 0 15 -5
15 -11 0 -11 21 -39 88 -118 17 -21 32 -41 32 -45 0 -14 64 -76 78 -76 22 0
70 55 141 162 68 103 174 252 236 331 192 249 251 326 287 380 55 81 83 111
97 103 13 -8 51 -129 51 -161 0 -12 11 -60 26 -106 14 -46 29 -100 34 -119 30
-121 101 -393 113 -430 18 -56 31 -106 51 -190 9 -36 18 -74 21 -85 5 -22 30
-107 50 -170 7 -22 16 -59 20 -82 4 -24 11 -45 16 -49 5 -3 9 -20 9 -38 0 -33
21 -112 93 -346 20 -63 54 -185 76 -270 23 -85 52 -193 66 -239 14 -46 25 -94
25 -106 0 -13 7 -52 16 -86 9 -34 17 -78 17 -96 1 -47 57 -113 83 -97 36 21
38 39 15 112 -13 39 -21 75 -18 79 3 5 -1 29 -9 53 -8 24 -26 96 -40 159 -14
64 -31 130 -38 146 -28 62 -66 194 -86 295 -21 107 -33 151 -55 205 -40 98
-77 215 -100 325 -15 69 -35 152 -45 185 -11 33 -30 110 -44 170 -15 61 -41
153 -60 205 -60 167 -134 444 -140 522 -2 26 -6 50 -9 55 -3 4 -8 26 -12 48
-4 22 -11 45 -15 50 -4 6 -13 34 -20 63 -20 84 -77 105 -132 48 -93 -95 -197
-222 -254 -311 -18 -29 -39 -59 -46 -66 -7 -8 -30 -39 -50 -69 -20 -30 -52
-71 -71 -90 -37 -39 -93 -119 -105 -149 -10 -27 -184 -219 -199 -220 -7 -1
-13 -5 -13 -11 0 -14 -11 -12 -34 5 -11 8 -16 18 -13 22 4 4 13 1 19 -5 7 -7
16 -12 20 -12 17 0 7 22 -25 54 -33 33 -47 53 -195 281 -39 61 -84 125 -99
143 -16 19 -33 46 -38 62 -6 15 -28 48 -50 74 -105 122 -126 147 -188 225 -37
46 -71 89 -75 96 -10 17 -67 24 -86 10z m74 -25 c0 -5 -5 -10 -11 -10 -5 0 -7
5 -4 10 3 6 8 10 11 10 2 0 4 -4 4 -10z m1507 -24 c-8 -9 -24 -12 -37 -9 -16
4 -18 8 -8 14 7 5 23 9 36 9 20 0 22 -2 9 -14z m-1557 -27 c0 -4 -6 -12 -14
-18 -7 -6 -16 -29 -20 -50 -3 -23 -13 -41 -22 -45 -25 -10 -26 -2 -5 26 13 16
18 33 14 48 -5 17 -3 21 7 15 10 -6 12 0 8 22 -4 28 -2 30 14 19 10 -6 18 -14
18 -17z m1490 7 c0 -2 -8 -10 -17 -17 -16 -13 -17 -12 -4 4 13 16 21 21 21 13z
m-1367 -90 c2 3 7 -7 9 -21 8 -38 -3 -30 -45 33 l-39 57 35 -37 c20 -20 38
-34 40 -32z m1306 17 c-13 -15 -28 -31 -33 -34 -5 -4 -5 -12 -1 -19 5 -9 4
-11 -3 -6 -18 11 -15 19 19 54 38 39 52 42 18 5z m185 -48 c2 -17 1 -23 -1
-15 -3 8 -12 20 -21 26 -9 6 -12 16 -7 23 10 18 24 1 29 -34z m-1439 -5 c10
-11 14 -20 9 -20 -5 0 -15 9 -22 20 -7 11 -11 20 -9 20 2 0 12 -9 22 -20z
m1189 -36 c-9 -13 -20 -24 -25 -24 -13 0 1 28 17 34 9 3 12 11 8 17 -4 8 -3 9
4 5 9 -5 7 -14 -4 -32z m233 -6 c-3 -8 -6 -5 -6 6 -1 11 2 17 5 13 3 -3 4 -12
1 -19z m-1667 -27 c0 -34 -25 -87 -45 -95 -21 -8 -19 6 6 33 11 12 18 29 15
37 -3 7 -1 14 5 14 5 0 7 11 3 26 -5 19 -4 25 5 20 6 -4 11 -20 11 -35z m283
13 c-7 -19 -10 -18 -16 5 -3 13 -1 18 9 14 7 -2 10 -11 7 -19z m-25 -3 c3 -8
-1 -12 -9 -9 -7 2 -15 10 -17 17 -3 8 1 12 9 9 7 -2 15 -10 17 -17z m1438 -12
c3 -6 0 -15 -7 -20 -11 -6 -11 -11 -1 -21 9 -9 12 -9 12 2 0 10 3 11 10 4 11
-11 3 -44 -10 -44 -7 0 -40 71 -40 85 0 10 29 5 36 -6z m-1356 -45 c0 -4 -7
-1 -15 6 -12 10 -15 10 -15 -1 0 -16 39 -44 56 -41 6 1 21 -9 34 -23 l23 -25
-41 0 c-31 0 -42 4 -42 15 0 8 -5 15 -10 15 -6 0 -15 10 -20 23 -6 12 -16 30
-22 40 -20 27 8 41 33 16 11 -11 19 -22 19 -25z m1033 -6 c-15 -15 -29 -25
-32 -22 -3 3 4 13 17 21 23 16 32 40 10 27 -9 -5 -8 -2 1 10 11 13 16 14 22 4
5 -8 -2 -23 -18 -40z m355 -93 c-7 -8 -38 23 -38 38 0 6 10 2 22 -10 12 -13
19 -25 16 -28z m-408 21 c0 -2 -7 -7 -16 -10 -8 -3 -12 -2 -9 4 6 10 25 14 25
6z m-1367 -50 c-7 -51 -13 -59 -13 -18 0 16 -2 37 -5 45 -4 8 0 14 9 14 13 0
14 -8 9 -41z m482 -33 c2 -28 0 -30 -16 -20 -17 11 -17 12 -1 30 16 18 16 19
-8 16 -14 -2 -33 3 -43 11 -17 14 -16 15 15 20 38 6 52 -8 53 -57z m835 29 c0
-5 -13 -24 -30 -42 -16 -18 -30 -38 -30 -43 0 -6 -2 -8 -5 -5 -7 7 16 58 26
58 4 0 11 9 14 20 6 19 25 28 25 12z m-1353 -44 c-3 -7 -5 -2 -5 12 0 14 2 19
5 13 2 -7 2 -19 0 -25z m564 -10 c13 -17 17 -28 8 -23 -24 14 -49 38 -49 47 0
18 20 7 41 -24z m1265 5 c-10 -10 -19 5 -10 18 6 11 8 11 12 0 2 -7 1 -15 -2
-18z m-1810 -30 c-10 -10 -19 5 -10 18 6 11 8 11 12 0 2 -7 1 -15 -2 -18z m-6
-32 c0 -9 -8 -27 -17 -40 -10 -15 -11 -21 -3 -16 10 6 12 1 6 -26 -10 -56 -50
-137 -68 -142 -20 -6 -24 18 -8 43 8 13 10 12 10 -3 0 -10 5 -15 10 -12 7 4 7
12 0 25 -5 10 -10 27 -10 36 0 14 3 15 12 6 20 -20 25 -14 20 20 -4 28 -6 30
-13 13 -6 -16 -8 -16 -8 -3 -1 9 2 24 5 33 6 13 9 14 16 3 6 -9 8 -6 7 12 -2
42 0 50 16 44 17 -7 21 11 5 21 -5 3 -10 11 -10 17 0 7 6 6 15 -2 8 -7 15 -20
15 -29z m556 21 c24 -13 79 -81 71 -88 -3 -3 -14 -1 -25 5 -11 6 -22 8 -24 5
-3 -2 -11 2 -18 11 -8 10 -9 15 -1 15 6 0 11 -5 11 -12 0 -9 3 -9 11 -1 14 14
-33 65 -53 58 -8 -3 -20 1 -27 9 -10 12 -8 14 11 12 13 -2 33 -8 44 -14z
m1284 -22 c0 -5 -4 -12 -10 -15 -5 -3 -10 -4 -10 -1 0 2 -3 12 -6 20 -5 12 -2
15 10 10 9 -3 16 -10 16 -14z m-592 -10 c-7 -10 -14 -17 -17 -15 -4 4 18 35
25 35 2 0 -1 -9 -8 -20z m-28 -35 c0 -8 -7 -15 -15 -15 -8 0 -15 -7 -15 -15 0
-8 -4 -15 -10 -15 -16 0 -12 13 13 37 27 27 27 27 27 8z m646 -59 c-2 -6 -5
-3 -5 7 -1 10 -5 16 -9 13 -5 -3 -9 9 -9 27 l0 32 14 -34 c8 -18 12 -38 9 -45z
m-1221 14 c3 -5 -1 -10 -9 -10 -9 0 -16 5 -16 10 0 6 4 10 9 10 6 0 13 -4 16
-10z m500 -65 c-15 -20 -30 -34 -33 -31 -3 3 2 14 11 24 10 10 14 22 10 27 -5
4 -3 5 3 2 7 -4 15 0 18 9 4 9 9 14 13 11 3 -4 -7 -23 -22 -42z m-499 21 c3
-8 12 -12 20 -9 8 3 14 -1 14 -11 0 -9 -6 -16 -12 -16 -16 1 -53 50 -38 50 6
0 13 -6 16 -14z m1235 -72 c-5 -22 -9 -29 -10 -17 -1 12 -4 29 -8 39 -4 12 -3
15 5 10 8 -4 12 0 13 11 0 10 3 13 5 7 2 -6 0 -28 -5 -50z m-1186 17 c-3 -6
-11 -11 -17 -11 -6 0 -6 6 2 15 14 17 26 13 15 -4z m1202 -33 c-3 -8 -6 -5 -6
6 -1 11 2 17 5 13 3 -3 4 -12 1 -19z m-1161 -10 c10 -12 13 -18 7 -14 -8 4
-13 2 -13 -5 0 -7 -8 -5 -20 6 -11 10 -20 22 -20 27 0 16 27 8 46 -14z m338
-22 c-3 -9 -10 -16 -16 -16 -5 0 -7 -4 -4 -9 3 -5 -2 -15 -12 -22 -15 -12 -16
-12 -5 2 7 9 10 19 6 22 -3 4 2 15 13 26 22 21 27 21 18 -3z m-1169 -59 c7
-67 6 -69 -14 -62 -17 5 -21 2 -21 -14 0 -28 -11 -52 -21 -45 -5 3 -9 -7 -8
-23 0 -25 1 -26 10 -8 8 17 9 17 4 -5 -2 -14 -5 -33 -5 -43 0 -9 -9 -25 -20
-34 -11 -10 -20 -23 -20 -31 0 -7 -4 -10 -10 -7 -14 9 -12 21 6 39 8 9 12 20
9 26 -10 16 6 34 17 19 5 -9 6 0 2 24 -4 26 -2 44 10 62 9 14 14 30 11 34 -3
5 2 16 10 24 8 9 15 28 15 44 0 28 10 76 15 71 1 -2 6 -34 10 -71z m35 59 c0
-15 -18 -31 -26 -23 -7 7 7 37 17 37 5 0 9 -6 9 -14z m1967 -18 c-9 -5 -9 -10
1 -20 14 -14 17 -52 3 -44 -12 8 -22 63 -14 82 4 12 7 13 14 3 5 -8 3 -17 -4
-21z m-1132 -38 c2 -27 1 -29 -10 -13 -9 13 -10 22 -3 30 7 9 7 13 -1 13 -6 0
-11 5 -11 12 0 26 23 -12 25 -42z m218 -24 c-10 -13 -20 -22 -22 -20 -4 4 29
44 36 44 2 0 -4 -11 -14 -24z m-163 -12 c0 -1 -3 -9 -6 -18 -5 -12 -10 -13
-25 -5 -24 12 -18 25 10 25 12 0 21 -1 21 -2z m135 -68 c-38 -49 -66 -69 -78
-57 -8 8 -6 11 6 11 19 0 23 15 7 25 -6 4 -1 14 12 25 16 13 25 15 30 7 4 -6
10 -8 14 -4 4 3 2 13 -4 20 -16 19 -4 28 18 15 17 -11 17 -13 -5 -42z m972 -8
c-3 -8 -6 -5 -6 6 -1 11 2 17 5 13 3 -3 4 -12 1 -19z m-1077 -13 c11 -13 10
-14 -4 -9 -9 3 -16 10 -16 15 0 13 6 11 20 -6z m1104 -38 c-3 -9 -10 -17 -15
-17 -11 0 -12 34 -2 44 11 11 24 -9 17 -27z m26 -22 c0 -8 -4 -15 -10 -15 -5
0 -7 7 -4 15 4 8 8 15 10 15 2 0 4 -7 4 -15z m0 -55 c0 -5 -5 -10 -11 -10 -5
0 -7 5 -4 10 3 6 8 10 11 10 2 0 4 -4 4 -10z m-2169 -73 c-6 -6 -11 -22 -12
-36 l0 -26 -10 25 c-8 20 -12 22 -19 10 -11 -17 -13 -5 -4 26 4 15 11 20 25
17 13 -4 19 0 20 13 1 18 1 18 6 0 3 -10 0 -23 -6 -29z m2179 -3 c0 -8 -4 -12
-10 -9 -5 3 -10 10 -10 16 0 5 5 9 10 9 6 0 10 -7 10 -16z m-2217 -127 c-17
-77 -27 -87 -19 -22 l6 50 -14 -40 c-12 -35 -14 -37 -15 -13 -1 15 4 39 11 55
6 15 10 32 9 36 -1 5 3 6 9 2 5 -3 10 0 10 7 0 10 2 10 9 -1 5 -8 3 -38 -6
-74z m2227 62 c0 -6 -4 -7 -10 -4 -5 3 -10 11 -10 16 0 6 5 7 10 4 6 -3 10
-11 10 -16z m39 -19 c0 -10 -3 -8 -9 5 -12 27 -12 43 0 25 5 -8 9 -22 9 -30z
m-2289 -139 c0 -6 -4 -11 -10 -11 -5 0 -10 7 -10 16 0 8 -4 12 -10 9 -11 -7
-14 8 -4 18 8 7 34 -17 34 -32z m-28 -32 c-1 -13 -4 -32 -5 -41 -2 -22 -33
-19 -33 3 0 10 5 17 11 16 5 -1 10 10 10 26 -1 15 4 26 10 24 5 -2 9 -15 7
-28z m2325 -1 c-3 -8 -6 -5 -6 6 -1 11 2 17 5 13 3 -3 4 -12 1 -19z m-2351
-118 c-5 -56 -9 -66 -36 -80 -17 -9 -19 -8 -11 12 5 13 14 22 19 21 5 -1 12 7
15 18 4 16 3 18 -9 8 -11 -9 -14 -9 -14 1 0 7 8 19 18 27 9 8 11 12 5 8 -8 -4
-13 0 -13 10 0 9 5 13 10 10 6 -3 10 -1 10 4 0 6 2 11 5 11 3 0 3 -22 1 -50z
m-24 -115 c-2 -14 -8 -25 -13 -25 -10 0 -11 12 -3 34 10 25 22 19 16 -9z m-32
-19 c0 -13 4 -26 9 -28 4 -1 0 -25 -11 -53 -10 -27 -15 -36 -12 -20 8 44 8 67
0 98 -6 18 -4 27 3 27 6 0 11 -11 11 -24z m-28 -74 c-5 -31 -5 -56 0 -67 6 -9
7 -19 4 -22 -3 -4 -6 -1 -6 7 0 10 -4 10 -17 -1 -15 -12 -16 -12 -11 2 4 10
12 45 19 78 6 34 14 60 16 57 2 -2 0 -26 -5 -54z m-2 -112 c0 -5 -10 -10 -22
-9 -22 0 -22 1 -3 9 11 5 21 9 23 9 1 1 2 -3 2 -9z m-51 -69 c-5 -24 -7 -51
-4 -61 3 -11 0 -20 -10 -24 -17 -6 -18 -3 -6 44 5 19 12 48 16 64 3 15 8 27
10 24 2 -2 -1 -23 -6 -47z m28 -1 c-6 -22 -15 -40 -20 -40 -5 0 -6 8 -2 18 4
9 10 27 12 40 3 12 9 22 13 22 4 0 2 -18 -3 -40z m-63 -161 c-2 -66 -13 -93
-16 -38 -2 53 4 99 15 99 1 0 2 -27 1 -61z m13 9 c-3 -8 -6 -5 -6 6 -1 11 2
17 5 13 3 -3 4 -12 1 -19z m-37 -112 c-16 -16 -22 0 -14 36 l7 33 8 -30 c5
-17 5 -33 -1 -39z m-3 -38 c-3 -8 -6 -5 -6 6 -1 11 2 17 5 13 3 -3 4 -12 1
-19z m-25 -23 c-6 -34 -12 -32 -12 6 0 16 4 28 9 25 4 -3 6 -17 3 -31z m5 -57
c-3 -8 -6 -5 -6 6 -1 11 2 17 5 13 3 -3 4 -12 1 -19z m-26 -68 c14 0 11 -47
-3 -52 -19 -7 -39 2 -32 14 4 6 10 5 15 -3 6 -9 8 4 6 36 -3 28 -2 40 0 28 2
-13 9 -23 14 -23z m19 22 c0 -15 -2 -15 -10 -2 -13 20 -13 33 0 25 6 -3 10
-14 10 -23z m-68 -114 c-7 -7 -12 -8 -12 -2 0 14 12 26 19 19 2 -3 -1 -11 -7
-17z m48 18 c0 -3 -4 -8 -10 -11 -5 -3 -10 -1 -10 4 0 6 5 11 10 11 6 0 10 -2
10 -4z m-13 -62 c-2 -2 -12 -1 -22 2 -17 7 -17 8 1 21 17 12 19 12 22 -2 2 -9
2 -19 -1 -21z m-17 -49 c0 -7 -9 -15 -20 -18 -11 -3 -20 -1 -20 3 0 5 -3 15
-6 23 -4 11 1 13 20 10 14 -3 26 -11 26 -18z m-26 -56 c-4 -8 -10 -7 -16 2 -6
10 -7 7 -3 -8 5 -17 2 -23 -9 -23 -11 0 -13 6 -7 28 4 15 6 33 3 41 -2 7 5 4
17 -8 12 -12 19 -27 15 -32z"/>
<path d="M6612 3400 c0 -14 2 -19 5 -12 2 6 2 18 0 25 -3 6 -5 1 -5 -13z"/>
<path d="M6541 3154 c0 -11 3 -14 6 -6 3 7 2 16 -1 19 -3 4 -6 -2 -5 -13z"/>
<path d="M7570 3085 c0 -8 5 -15 10 -15 6 0 10 7 10 15 0 8 -4 15 -10 15 -5 0
-10 -7 -10 -15z"/>
<path d="M10418 4059 c-10 -5 -18 -19 -18 -30 0 -11 -11 -42 -25 -69 -14 -27
-25 -54 -25 -60 0 -6 -13 -38 -30 -71 -16 -33 -29 -60 -28 -62 2 -8 -34 -114
-45 -131 -8 -12 -20 -39 -27 -61 -7 -22 -16 -44 -20 -50 -4 -5 -11 -26 -15
-45 -4 -19 -10 -39 -14 -45 -4 -5 -13 -30 -21 -55 -7 -25 -19 -54 -26 -66 -7
-11 -19 -43 -27 -70 -8 -27 -24 -69 -35 -94 -12 -25 -32 -79 -46 -120 -14 -41
-35 -100 -47 -130 -11 -30 -23 -64 -26 -75 -3 -11 -9 -24 -13 -30 -9 -11 -43
-102 -101 -270 -21 -60 -43 -119 -49 -130 -18 -36 -80 -199 -80 -213 0 -7 -4
-20 -9 -30 -23 -45 -46 -113 -42 -121 2 -2 -2 -7 -7 -10 -5 -3 -31 -69 -57
-146 -26 -77 -51 -144 -56 -149 -5 -6 -9 -18 -9 -28 0 -10 -5 -18 -11 -18 -5
0 -9 -9 -7 -19 2 -10 -4 -27 -13 -37 -9 -11 -35 -68 -58 -129 -24 -60 -47
-118 -52 -128 -12 -22 14 -57 42 -57 55 0 127 125 159 277 25 117 67 257 91
304 10 21 19 46 19 56 0 10 15 57 34 103 18 47 70 182 116 300 45 118 90 235
100 260 65 161 140 359 140 369 0 9 13 10 48 4 50 -9 606 -7 659 2 37 7 61
-13 70 -56 3 -16 9 -29 14 -29 5 0 9 -11 9 -24 0 -14 5 -28 10 -31 6 -3 10
-19 10 -34 0 -15 7 -36 15 -47 8 -10 15 -26 15 -34 0 -8 12 -37 26 -64 14 -27
35 -76 46 -110 11 -34 31 -88 45 -121 29 -70 26 -61 91 -230 28 -71 54 -142
58 -157 3 -16 9 -28 13 -28 3 0 12 -19 19 -42 7 -24 38 -104 67 -178 30 -74
63 -160 73 -190 99 -283 99 -282 126 -278 32 5 25 57 -21 168 -22 52 -43 110
-46 129 -4 19 -16 52 -26 75 -10 23 -35 86 -56 141 -20 55 -45 120 -55 145
-43 107 -170 430 -190 485 -13 33 -29 74 -36 90 -7 17 -17 46 -23 65 -23 83
-130 360 -147 380 -13 16 -85 215 -115 318 -10 35 -29 86 -42 115 -14 29 -50
113 -82 187 -31 74 -64 153 -74 175 -10 22 -30 83 -46 135 -36 119 -66 149
-117 119z m62 -134 c0 -14 13 -54 29 -90 16 -35 32 -78 36 -96 4 -19 11 -40
15 -49 4 -8 15 -31 23 -50 8 -19 20 -46 26 -60 6 -14 27 -70 47 -125 19 -55
42 -115 50 -133 16 -35 82 -205 91 -234 8 -26 -5 -54 -19 -40 -7 7 -107 9
-341 5 l-330 -6 7 29 c4 16 21 58 38 94 17 36 37 83 44 104 8 22 18 44 23 50
5 6 16 38 26 71 9 33 36 96 59 140 23 44 48 103 56 130 7 28 22 66 32 86 10
19 23 62 28 95 18 100 19 104 40 104 15 0 20 -7 20 -25z m47 -57 c-3 -8 -6 -5
-6 6 -1 11 2 17 5 13 3 -3 4 -12 1 -19z m43 -103 c0 -5 -5 -3 -10 5 -5 8 -10
20 -10 25 0 6 5 3 10 -5 5 -8 10 -19 10 -25z m84 -190 c3 -8 1 -15 -4 -15 -6
0 -10 7 -10 15 0 8 2 15 4 15 2 0 6 -7 10 -15z m134 -354 c3 -8 -1 -12 -9 -9
-7 2 -15 10 -17 17 -3 8 1 12 9 9 7 -2 15 -10 17 -17z m336 -877 c3 -8 2 -12
-4 -9 -6 3 -10 10 -10 16 0 14 7 11 14 -7z m-1323 -31 c-12 -20 -14 -14 -5 12
4 9 9 14 11 11 3 -2 0 -13 -6 -23z m-371 -900 c-11 -17 -11 -17 -6 0 3 10 6
24 7 30 0 9 2 9 5 0 3 -7 0 -20 -6 -30z"/>
<path d="M4565 997 c-16 -12 -17 -23 -11 -80 3 -37 9 -73 12 -80 6 -16 -53
-27 -141 -27 -39 0 -56 -5 -69 -19 -26 -29 -17 -54 24 -63 32 -7 122 -3 161 8
13 3 15 -10 16 -93 1 -131 19 -250 50 -337 37 -99 55 -121 131 -157 56 -27 80
-33 157 -36 108 -4 139 7 143 54 5 49 -30 67 -125 65 -42 -2 -80 -5 -84 -8 -5
-3 -35 19 -66 49 l-56 54 -24 124 c-25 131 -43 260 -37 270 2 3 59 9 126 13
152 9 202 21 223 52 29 44 15 48 -165 40 l-167 -6 -7 31 c-3 17 -6 45 -6 61 0
36 -24 83 -45 92 -21 8 -18 8 -40 -7z m29 -25 c3 -5 -1 -9 -9 -9 -8 0 -15 4
-15 9 0 4 4 8 9 8 6 0 12 -4 15 -8z m13 -46 c-5 -16 -27 -19 -27 -3 0 7 7 14
15 14 9 0 14 -5 12 -11z m238 -126 c19 -8 19 -9 -2 -9 -12 -1 -25 4 -28 9 -7
12 2 12 30 0z m75 0 c-19 -13 -30 -13 -30 0 0 6 10 10 23 10 18 0 19 -2 7 -10z
m44 1 c7 -11 -49 -35 -66 -28 -7 3 -3 6 10 6 12 1 25 8 28 16 7 17 20 20 28 6z
m-564 -31 c0 -5 -9 -10 -21 -10 -11 0 -17 5 -14 10 3 6 13 10 21 10 8 0 14 -4
14 -10z m285 -420 c3 -5 1 -10 -4 -10 -6 0 -11 5 -11 10 0 6 2 10 4 10 3 0 8
-4 11 -10z m75 -100 c0 -5 -12 -10 -27 -9 l-28 1 25 8 c14 4 26 8 28 9 1 1 2
-3 2 -9z m-85 -20 c3 -5 1 -10 -4 -10 -6 0 -11 5 -11 10 0 6 2 10 4 10 3 0 8
-4 11 -10z m298 -27 c-7 -2 -21 -2 -30 0 -10 3 -4 5 12 5 17 0 24 -2 18 -5z
m45 -21 c2 -7 -1 -19 -8 -27 -10 -13 -14 -13 -27 0 -8 8 -30 15 -49 15 -30 0
-42 8 -30 21 11 10 110 2 114 -9z m-172 -19 c-4 -22 -23 -28 -42 -12 -12 10
-12 14 -2 20 23 15 46 10 44 -8z"/>
<path d="M2383 951 c-114 -54 -226 -202 -250 -331 -13 -72 1 -197 30 -256 29
-58 125 -151 165 -160 15 -3 38 -11 51 -17 14 -7 59 -11 110 -9 150 4 202 19
255 71 54 53 66 52 66 -1 0 -63 10 -74 49 -54 l31 17 -5 371 c-2 204 -8 375
-12 379 -5 4 -16 1 -27 -6 -15 -12 -18 -24 -14 -75 2 -33 2 -60 -1 -60 -3 0
-25 22 -47 48 -23 27 -68 62 -102 80 -54 29 -68 32 -148 32 -78 0 -97 -4 -151
-29z m197 -21 c18 -12 2 -12 -25 0 -13 6 -15 9 -5 9 8 0 22 -4 30 -9z m290 0
c0 -5 -5 -10 -11 -10 -5 0 -7 5 -4 10 3 6 8 10 11 10 2 0 4 -4 4 -10z m-220
-51 c83 -42 145 -136 144 -219 0 -96 -26 -203 -62 -260 -69 -110 -103 -130
-222 -130 -152 0 -234 63 -282 219 -33 106 -9 203 74 313 69 89 247 129 348
77z m170 -149 c0 -5 -2 -10 -4 -10 -3 0 -8 5 -11 10 -3 6 -1 10 4 10 6 0 11
-4 11 -10z"/>
<path d="M152 948 c-18 -36 -30 -415 -18 -613 2 -44 5 -90 5 -102 2 -36 46
-31 66 7 19 36 37 314 24 369 -23 100 68 199 218 238 64 17 141 10 150 -13 3
-8 13 -14 22 -14 37 0 88 -48 104 -97 18 -55 42 -383 34 -454 -6 -46 -5 -48
25 -58 43 -15 78 -14 84 3 8 20 -14 398 -27 476 -18 110 -31 141 -79 189 -47
48 -68 61 -137 81 -92 28 -263 -9 -350 -76 -47 -35 -65 -27 -57 27 5 30 3 43
-7 50 -24 15 -45 10 -57 -13z"/>
<path d="M8983 941 c-52 -18 -62 -24 -116 -71 -16 -14 -34 -25 -39 -25 -6 0
-17 22 -25 48 -16 54 -28 62 -66 48 -45 -17 -48 -35 -37 -223 28 -472 33 -534
42 -545 16 -19 53 -16 73 7 20 22 22 80 5 140 -13 46 -13 235 0 282 6 21 16
43 23 50 7 7 19 26 27 42 26 51 95 114 139 127 60 18 187 0 280 -40 66 -28 76
-30 90 -17 13 14 13 19 0 42 -38 73 -117 122 -225 143 -79 15 -108 13 -171 -8z
m37 -45 c0 -2 -7 -6 -15 -10 -8 -3 -15 -1 -15 4 0 6 7 10 15 10 8 0 15 -2 15
-4z m-56 -34 c3 -4 -8 -13 -25 -19 -33 -13 -38 -7 -11 13 20 16 29 17 36 6z"/>
<path d="M6994 939 c-3 -6 -8 -93 -10 -193 -3 -197 -17 -279 -61 -372 -52
-110 -124 -154 -253 -154 -54 0 -59 2 -104 47 -26 25 -56 63 -66 83 -30 59
-50 164 -51 268 -1 163 -13 269 -34 292 -18 20 -50 27 -59 12 -9 -15 -10 -104
-3 -187 4 -44 9 -128 12 -186 5 -118 25 -206 62 -285 20 -43 37 -61 91 -96 65
-43 67 -43 169 -46 89 -3 109 -1 147 18 48 23 116 86 116 107 0 7 7 13 16 13
12 0 15 -6 10 -23 -9 -38 11 -92 40 -105 35 -17 52 -15 57 6 3 9 4 186 3 394
-1 354 -2 377 -20 397 -21 23 -51 28 -62 10z m46 -29 c8 -5 12 -11 10 -14 -3
-2 -14 2 -24 10 -22 15 -10 19 14 4z m-640 -21 c0 -5 -4 -9 -10 -9 -5 0 -10 7
-10 16 0 8 5 12 10 9 6 -3 10 -10 10 -16z m30 -315 c0 -8 -5 -12 -10 -9 -6 4
-8 11 -5 16 9 14 15 11 15 -7z m550 -251 c-1 -18 -19 -35 -29 -28 -9 5 -9 10
0 21 12 15 29 19 29 7z m-406 -88 c16 -12 17 -15 4 -15 -8 0 -21 7 -28 15 -16
19 -1 19 24 0z m252 -20 c-23 -17 -36 -19 -36 -6 0 11 18 19 40 20 11 0 10 -3
-4 -14z m-196 -55 c0 -5 -9 -10 -19 -10 -11 0 -23 5 -26 10 -4 6 5 10 19 10
14 0 26 -4 26 -10z"/>
<path d="M10990 922 c-121 -41 -165 -68 -212 -130 -25 -32 -55 -86 -67 -120
-49 -144 -10 -328 94 -436 42 -45 64 -58 138 -84 84 -30 95 -32 236 -32 141 0
148 1 169 23 12 13 22 28 22 34 0 7 -51 13 -142 16 -174 7 -239 18 -297 48
-50 27 -97 85 -110 138 -20 75 -33 153 -27 159 7 6 81 -6 206 -33 180 -40 345
13 404 130 32 63 50 150 36 176 -15 27 -56 66 -102 97 -38 25 -49 27 -167 29
-101 3 -137 -1 -181 -15z m276 -76 c33 -16 56 -35 69 -59 17 -33 18 -37 1 -70
-26 -56 -77 -104 -126 -118 -25 -8 -81 -14 -125 -13 -67 0 -89 4 -135 28 -30
15 -70 39 -88 53 -36 27 -36 49 -1 87 11 11 19 23 19 28 0 13 111 61 170 74
91 20 160 17 216 -10z"/>
</g>
</svg>
