<?xml version="1.0" standalone="no"?>
<!DOCTYPE svg PUBLIC "-//W3C//DTD SVG 20010904//EN"
 "http://www.w3.org/TR/2001/REC-SVG-20010904/DTD/svg10.dtd">
<svg version="1.0" xmlns="http://www.w3.org/2000/svg"
 width="1574.000000pt" height="2530.000000pt" viewBox="0 0 1574.000000 2530.000000"
 preserveAspectRatio="xMidYMid meet">

<g transform="translate(0.000000,2530.000000) scale(0.100000,-0.100000)"
fill="#000000" stroke="none">
<path d="M7661 25156 c-6 -8 -21 -60 -31 -115 -11 -56 -26 -112 -34 -124 -16
-27 -60 -213 -52 -225 3 -5 1 -34 -4 -63 -6 -30 -21 -139 -35 -244 -14 -104
-30 -212 -35 -240 -6 -27 -17 -93 -25 -145 -9 -52 -20 -97 -26 -101 -6 -3 -14
-30 -19 -60 -4 -30 -13 -83 -19 -119 -28 -180 -36 -292 -36 -545 0 -170 5
-296 12 -340 7 -38 15 -125 18 -191 2 -67 7 -128 10 -136 3 -8 2 -25 -3 -38
l-9 -25 -8 25 c-4 14 -17 39 -29 55 -28 37 -96 180 -96 201 0 31 -61 162 -88
186 -47 44 -71 52 -93 32 -22 -20 -25 -78 -9 -184 5 -36 12 -128 15 -205 3
-77 10 -156 15 -175 5 -19 18 -129 29 -245 46 -488 51 -537 74 -645 33 -157
38 -212 42 -472 4 -264 8 -311 28 -336 6 -8 7 -72 2 -177 -5 -126 -4 -173 7
-202 16 -48 16 -235 -1 -285 -12 -37 -47 -68 -76 -68 -35 0 -78 34 -124 98
-56 76 -163 182 -184 182 -55 0 -56 -165 -2 -390 19 -81 35 -162 35 -180 0
-18 13 -71 29 -119 17 -47 37 -117 46 -156 9 -38 22 -89 30 -113 32 -94 8
-110 -43 -28 -19 29 -47 61 -64 70 -16 10 -33 29 -38 42 -20 53 -120 83 -155
47 -23 -22 -15 -86 21 -173 54 -132 93 -253 109 -334 8 -46 31 -126 51 -178
20 -51 45 -127 56 -168 11 -41 28 -88 38 -105 23 -37 38 -78 85 -230 21 -66
46 -139 56 -162 11 -24 19 -53 19 -65 0 -13 6 -34 13 -48 8 -14 17 -40 20 -58
4 -17 16 -51 27 -74 12 -24 24 -65 27 -91 7 -56 34 -83 66 -66 21 12 21 10 -2
137 -6 28 -32 107 -59 175 -27 67 -64 160 -81 207 -18 47 -39 100 -48 118 -23
53 -46 135 -45 161 1 14 -1 27 -5 30 -17 13 -32 52 -44 112 -7 35 -20 82 -31
105 -10 22 -18 52 -18 67 0 14 -12 52 -26 83 -33 72 -74 209 -74 249 0 17 -7
40 -15 52 -31 44 -103 213 -94 219 10 6 79 -63 79 -79 0 -5 16 -31 35 -57 19
-26 35 -51 35 -55 0 -21 160 -205 179 -205 18 0 44 48 36 67 -4 10 -11 52 -16
93 -11 105 -25 173 -43 208 -9 17 -19 63 -22 104 -4 40 -17 100 -29 133 -13
33 -26 80 -30 105 -4 25 -18 71 -31 102 -13 32 -24 68 -24 80 0 13 -7 48 -15
78 -8 30 -18 90 -21 133 -6 67 -5 77 8 72 9 -4 24 -23 34 -43 54 -106 108
-170 189 -225 46 -31 71 -33 118 -11 59 28 95 107 104 227 5 70 13 91 27 69 3
-5 1 -58 -4 -118 -5 -60 -14 -179 -20 -264 -5 -85 -15 -192 -20 -237 -6 -44
-15 -164 -21 -265 -5 -100 -14 -219 -18 -263 -5 -44 -7 -173 -6 -287 3 -169 6
-211 19 -223 8 -8 19 -15 25 -15 11 0 24 39 20 61 -3 19 9 151 26 284 14 112
23 213 30 340 22 415 31 505 55 505 16 0 22 75 8 102 -17 31 -7 203 18 318 13
61 14 83 5 118 -10 34 -9 55 3 105 8 34 18 100 21 146 4 47 15 123 26 170 12
55 19 125 19 196 0 61 6 139 15 175 14 63 22 107 45 237 6 34 11 83 11 110 0
26 4 73 10 103 10 62 14 141 29 515 6 143 17 314 25 380 9 66 20 177 25 248 5
70 14 155 20 190 5 34 10 136 10 227 0 91 5 182 11 203 26 96 40 984 19 1282
-14 200 -28 342 -40 400 -5 28 -14 91 -20 140 -6 50 -13 98 -16 108 -6 21 -27
22 -43 3z m4 -536 c4 -6 11 -59 16 -118 5 -59 14 -115 20 -125 7 -12 6 -37 -2
-78 -9 -48 -9 -75 1 -129 8 -41 10 -84 5 -107 -4 -21 -9 -144 -10 -273 -2
-129 -7 -269 -11 -310 -4 -41 -7 -181 -8 -310 -1 -129 -7 -287 -14 -350 -14
-135 -25 -317 -22 -380 0 -24 -3 -53 -9 -65 -11 -24 -43 -237 -47 -320 -2 -33
-8 -114 -13 -180 -6 -66 -15 -196 -21 -290 -7 -93 -16 -199 -22 -235 -5 -36
-11 -85 -13 -110 -2 -25 -8 -72 -14 -105 -11 -69 -18 -155 -27 -310 -3 -60 -9
-132 -14 -160 -5 -27 -12 -77 -16 -110 -3 -33 -13 -87 -21 -120 -9 -36 -13
-81 -10 -112 4 -42 2 -54 -14 -69 -10 -9 -21 -15 -22 -13 -18 22 -29 189 -31
474 -2 248 -7 357 -19 440 -9 61 -20 117 -23 125 -8 22 -24 245 -33 475 -5
127 -13 211 -21 230 -8 18 -14 78 -16 155 -1 82 -7 138 -16 160 -19 45 -31
137 -19 144 12 8 23 -9 50 -79 26 -68 72 -115 112 -115 31 0 89 30 89 45 0 6
5 3 10 -5 6 -10 8 -2 4 25 -4 27 -2 36 4 27 6 -9 8 13 5 62 -3 50 -1 76 6 76
15 0 14 70 -2 100 -8 15 -12 58 -11 110 1 47 -2 117 -8 155 -18 136 -22 202
-22 445 -1 144 4 270 10 305 29 152 46 235 61 295 9 36 19 103 24 150 4 47 18
128 32 180 13 52 30 133 36 180 17 118 33 214 38 223 6 10 21 9 28 -3z m-185
-2092 c0 -36 -4 -35 -14 5 -4 16 -2 27 4 27 5 0 10 -14 10 -32z"/>
<path d="M7805 23273 c1 -65 10 -170 20 -233 18 -124 26 -521 13 -680 -19
-224 -16 -599 7 -925 14 -200 4 -968 -15 -1178 -6 -75 -7 -124 -1 -136 6 -10
13 -76 17 -147 4 -71 10 -138 14 -150 11 -29 -21 -339 -42 -419 -14 -48 -16
-116 -6 -131 5 -6 1 -27 -7 -47 -8 -20 -15 -60 -15 -89 0 -66 -26 -295 -40
-363 -22 -99 -27 -197 -12 -212 12 -12 12 -16 -2 -32 -9 -10 -21 -45 -27 -77
-6 -32 -14 -79 -19 -104 -5 -25 -14 -76 -21 -115 -7 -38 -16 -74 -20 -80 -8
-11 -21 -67 -24 -105 -6 -61 -28 -180 -42 -230 -9 -30 -18 -77 -20 -105 -4
-43 -1 -52 17 -63 18 -11 23 -10 40 10 29 34 60 101 60 127 0 44 30 236 50
316 20 86 63 271 79 345 6 25 19 119 30 210 25 193 47 333 66 410 42 168 67
551 58 860 -8 259 -3 404 22 615 15 127 20 519 11 820 -3 88 -7 225 -9 305 -3
80 -10 166 -17 193 -9 33 -10 85 -6 170 8 147 8 91 1 512 -4 253 -10 368 -20
415 -8 36 -16 88 -17 115 -2 28 -7 53 -11 56 -12 9 -29 148 -23 184 7 39 -11
62 -55 70 l-36 7 2 -119z"/>
<path d="M8599 18983 c0 -11 -3 -13 -6 -5 -6 16 -33 16 -33 -1 0 -18 21 -37
41 -37 10 0 33 -9 51 -20 33 -19 212 -66 277 -72 19 -2 36 -7 38 -13 2 -6 -61
-10 -175 -11 -178 -1 -232 -9 -232 -37 0 -26 50 -37 168 -37 111 0 311 -22
334 -36 6 -4 43 -13 82 -21 71 -14 124 -21 326 -46 58 -7 114 -18 125 -24 12
-6 58 -21 103 -33 46 -11 107 -32 137 -46 30 -13 69 -27 87 -31 18 -3 54 -16
80 -29 53 -27 126 -54 147 -54 22 0 189 -70 229 -95 20 -13 50 -34 66 -47 17
-13 66 -41 110 -64 45 -22 95 -48 111 -57 17 -9 68 -35 115 -58 47 -22 94 -49
105 -59 11 -10 65 -39 120 -65 55 -26 115 -60 133 -76 18 -16 39 -29 46 -29 8
0 16 -7 19 -15 4 -8 32 -28 65 -44 32 -16 64 -36 71 -45 7 -9 43 -31 80 -49
121 -61 186 -99 216 -128 17 -15 95 -71 175 -125 80 -53 146 -100 148 -105 2
-5 8 -9 14 -9 5 0 24 -11 41 -24 18 -13 61 -38 96 -56 62 -31 89 -49 226 -154
44 -34 66 -45 83 -41 22 5 32 -10 11 -17 -13 -4 144 -108 164 -108 8 0 43 -27
77 -60 35 -32 78 -66 95 -74 18 -9 42 -30 55 -48 22 -33 53 -58 160 -130 30
-21 84 -66 120 -101 36 -34 81 -74 100 -89 19 -15 62 -52 95 -82 33 -31 63
-56 67 -56 3 0 15 -15 27 -32 11 -18 50 -55 87 -83 160 -120 485 -448 612
-616 91 -122 152 -203 165 -219 23 -29 75 -115 93 -155 10 -22 35 -66 56 -97
21 -31 38 -59 38 -61 0 -3 27 -49 60 -103 33 -55 58 -106 55 -115 -3 -9 5 -31
18 -50 30 -45 108 -198 141 -276 14 -35 42 -95 61 -135 19 -39 35 -79 35 -88
0 -9 11 -43 24 -76 13 -34 33 -103 45 -155 13 -52 27 -102 32 -111 5 -10 9
-27 9 -39 0 -11 11 -53 25 -94 13 -40 33 -106 44 -147 11 -40 31 -107 46 -148
14 -41 28 -104 30 -140 3 -36 12 -89 20 -117 8 -29 22 -77 30 -105 8 -29 33
-138 56 -242 22 -104 45 -201 51 -215 54 -140 81 -638 54 -985 -37 -471 -47
-583 -56 -627 -5 -25 -14 -97 -20 -160 -7 -63 -15 -118 -20 -124 -8 -10 -42
-206 -55 -315 -8 -75 -72 -360 -96 -429 -11 -31 -31 -96 -45 -146 -14 -49 -30
-98 -35 -107 -5 -10 -9 -25 -9 -33 0 -8 -4 -15 -9 -15 -4 0 -18 -37 -31 -82
-40 -147 -157 -456 -180 -478 -3 -3 -23 -50 -45 -105 -38 -95 -83 -188 -129
-265 -19 -31 -87 -167 -130 -260 -23 -49 -57 -110 -82 -145 -12 -17 -39 -61
-59 -100 -61 -111 -75 -136 -99 -169 -13 -17 -43 -69 -68 -116 -40 -78 -199
-300 -219 -308 -5 -2 -9 -9 -9 -17 0 -7 -8 -19 -17 -26 -9 -8 -40 -51 -70 -97
-29 -45 -93 -124 -142 -175 -49 -50 -111 -119 -137 -152 -27 -33 -51 -62 -55
-65 -3 -3 -25 -36 -49 -75 -24 -38 -60 -90 -79 -115 -20 -25 -43 -54 -51 -64
-8 -11 -47 -53 -86 -95 -227 -244 -206 -224 -410 -386 -49 -38 -139 -119 -201
-179 -62 -60 -153 -139 -201 -175 -221 -166 -275 -201 -381 -242 -58 -22 -130
-51 -160 -65 -29 -14 -83 -31 -120 -39 -62 -13 -113 -25 -255 -61 -33 -8 -79
-24 -104 -35 -24 -11 -88 -29 -141 -39 -164 -32 -262 -51 -356 -66 -49 -8
-112 -21 -140 -30 -119 -36 -156 -44 -255 -59 -258 -38 -386 -46 -574 -34
-100 5 -235 9 -300 7 -100 -3 -121 -6 -130 -20 -8 -14 -7 -21 6 -34 21 -21
136 -34 208 -23 30 5 67 5 82 1 35 -9 441 3 743 22 33 3 79 11 102 19 46 17
89 24 213 32 47 3 121 15 165 25 44 11 113 26 153 35 40 8 118 31 174 50 57
19 117 35 134 35 17 0 53 7 80 15 27 8 50 15 52 15 1 0 2 -7 2 -16 0 -8 -16
-22 -35 -29 -19 -8 -74 -34 -122 -58 -103 -50 -204 -88 -403 -152 -199 -64
-189 -61 -340 -90 -74 -14 -169 -33 -210 -42 -41 -9 -102 -19 -135 -23 -33 -4
-109 -13 -170 -21 -125 -15 -1105 -20 -1260 -6 -104 10 -125 2 -108 -36 9 -20
24 -28 70 -37 32 -6 74 -16 95 -21 50 -13 988 -13 1113 0 55 6 136 11 179 11
75 0 249 25 380 55 34 7 93 17 131 21 39 3 81 11 95 16 14 5 48 14 75 19 28 5
79 18 115 28 36 10 101 27 145 36 108 23 144 40 298 139 73 46 155 95 182 108
28 13 76 42 109 64 32 21 66 44 75 49 9 6 18 13 21 16 3 3 37 27 75 51 39 25
126 86 195 137 69 50 158 115 198 144 40 28 101 74 135 101 34 26 76 55 92 63
17 9 48 30 70 47 22 17 45 34 50 39 6 4 30 20 54 36 24 16 60 44 80 62 20 19
61 51 92 72 30 20 65 48 77 62 11 13 40 36 64 52 42 26 153 115 173 138 6 6
35 28 65 47 30 20 97 75 148 122 51 47 96 86 101 86 4 0 22 12 38 27 17 16 46
41 66 56 20 15 53 53 73 85 33 51 86 114 192 230 17 20 32 40 32 45 0 10 58
88 103 137 36 39 115 157 142 210 38 76 126 213 155 240 14 14 69 89 84 115
48 85 73 127 94 152 55 69 99 132 127 185 16 32 50 90 75 130 41 66 76 136
153 308 14 30 38 84 55 120 16 36 33 87 37 114 4 27 27 88 50 135 68 139 108
233 116 276 8 42 50 169 73 220 27 57 65 160 86 235 35 119 42 141 67 210 12
36 23 74 23 84 0 11 6 42 14 70 19 67 56 266 56 299 0 14 7 52 16 84 17 60 26
105 43 206 5 32 16 73 25 90 19 42 49 212 42 246 -4 14 6 85 20 156 14 72 29
189 34 260 5 72 13 164 17 205 8 75 5 110 -17 185 -12 38 -19 108 -35 360 -4
61 -13 117 -20 125 -7 8 -17 47 -24 85 -17 99 -18 111 -26 195 -4 41 -11 80
-15 85 -7 11 -32 159 -50 310 -6 49 -15 94 -20 100 -5 6 -23 66 -40 135 -17
69 -42 157 -54 195 -13 39 -29 95 -35 125 -6 30 -20 84 -31 120 -46 153 -143
448 -156 478 -8 18 -14 37 -14 43 0 6 -8 23 -19 37 -10 15 -19 38 -19 52 0 32
-47 148 -71 174 -10 12 -22 39 -26 61 -3 22 -12 49 -19 60 -7 11 -16 32 -19
46 -4 14 -16 36 -27 49 -11 13 -20 32 -20 44 0 12 -14 48 -30 81 -16 33 -30
65 -30 71 0 6 -9 19 -20 29 -11 10 -20 26 -20 35 0 57 -138 322 -225 431 -27
35 -59 77 -70 94 -40 63 -112 143 -260 290 -181 179 -216 212 -275 254 -51 36
-195 166 -249 225 -40 43 -173 162 -241 216 -24 19 -60 49 -80 66 -19 17 -56
44 -81 60 -25 16 -64 43 -85 61 -21 18 -66 52 -99 77 -107 82 -119 91 -145
116 -65 63 -188 156 -340 256 -91 60 -181 122 -200 139 -19 17 -61 49 -92 70
-32 22 -73 51 -91 65 -75 56 -145 109 -158 122 -8 7 -22 18 -31 23 -8 6 -35
25 -59 43 -89 67 -361 249 -395 264 -16 7 -63 33 -104 58 -79 49 -267 143
-310 155 -14 5 -62 25 -107 46 -45 22 -85 39 -89 39 -4 0 -25 9 -48 19 -23 11
-72 29 -111 40 -38 11 -122 36 -185 55 -63 19 -133 37 -155 41 -22 4 -74 20
-115 36 -41 16 -109 37 -150 48 -41 10 -104 33 -140 49 -113 54 -232 95 -276
96 -23 0 -40 4 -38 8 6 10 -24 15 -99 17 -45 1 -66 -2 -62 -9 3 -5 21 -10 38
-10 50 0 107 -19 107 -36 0 -11 7 -13 26 -8 36 9 104 -14 97 -33 -4 -11 1 -14
18 -11 16 2 23 9 21 21 -3 21 6 21 32 2 16 -12 17 -15 4 -15 -21 0 -32 -30
-17 -44 9 -8 10 -6 6 7 -5 13 -2 18 11 16 9 -1 25 2 36 6 11 5 26 3 37 -3 10
-7 26 -12 34 -12 8 0 15 -4 15 -10 0 -13 -47 -13 -52 -1 -1 5 -22 1 -46 -10
-37 -17 -48 -18 -85 -8 -23 7 -47 12 -54 10 -21 -3 -23 16 -2 37 18 20 19 22
2 24 -10 0 -31 0 -46 -1 -16 -1 -35 3 -43 10 -8 7 -42 12 -74 13 -42 0 -60 4
-60 13 0 17 -17 17 -24 1 -3 -9 -8 -8 -16 5 -8 13 -21 17 -43 14 -18 -2 -24
-2 -14 0 26 6 10 23 -22 23 -15 0 -32 5 -38 11 -8 8 -16 7 -31 -2 -16 -10 -23
-10 -36 4 -15 14 -13 16 28 22 25 4 49 4 54 1 6 -3 34 -1 62 4 32 6 57 6 64 1
13 -11 106 -26 106 -17 0 11 -75 37 -145 51 -38 8 -92 21 -120 29 -27 8 -104
24 -170 36 -109 20 -178 39 -303 85 -24 8 -69 20 -100 24 -32 5 -102 21 -157
35 -118 31 -135 32 -136 9z m96 -13 c11 -5 14 -9 6 -9 -7 -1 -11 -7 -7 -16 3
-9 0 -15 -9 -15 -19 0 -28 17 -13 23 7 3 1 6 -14 6 -15 1 -30 6 -33 11 -8 12
42 12 70 0z m65 -34 c0 -9 -7 -12 -20 -9 -31 8 -34 23 -6 23 16 0 26 -6 26
-14z m64 -5 c19 -7 18 -8 -4 -14 -25 -6 -40 -2 -40 14 0 11 17 11 44 0z m121
-21 c3 -5 12 -10 19 -10 8 0 30 -7 51 -16 28 -11 35 -18 26 -27 -8 -8 -19 -5
-42 12 -16 12 -47 24 -67 27 -28 3 -31 2 -12 -4 14 -4 20 -11 14 -14 -5 -4
-16 -3 -24 3 -8 5 -27 9 -42 9 -16 0 -28 5 -28 11 0 7 10 9 25 7 13 -3 22 -1
19 3 -3 5 8 9 25 9 16 0 33 -4 36 -10z m166 -68 c-19 -6 57 -41 92 -42 20 0
27 -5 27 -19 0 -17 -5 -17 -52 -9 -29 5 -62 13 -73 18 -11 5 -34 10 -51 12
-24 3 -33 -1 -41 -19 -10 -20 -8 -23 8 -23 10 0 19 5 19 11 0 13 26 9 109 -14
62 -17 83 -14 96 15 11 23 55 34 84 22 9 -4 30 -6 46 -5 28 2 29 2 11 -12 -17
-13 -13 -14 46 -11 48 3 70 -1 84 -12 19 -15 19 -15 -1 -9 -27 9 -25 9 -72 0
-42 -7 -47 -13 -44 -45 1 -12 -9 -14 -51 -12 -29 2 -57 8 -63 14 -7 7 4 8 33
3 25 -4 42 -3 42 3 0 19 -53 22 -177 9 -24 -3 -30 0 -25 11 4 12 -1 14 -26 9
-24 -5 -34 -2 -41 11 -6 9 -11 11 -11 5 0 -12 -42 -10 -80 4 -8 3 -62 8 -120
10 -58 3 -109 9 -114 14 -6 5 0 9 16 9 14 0 41 2 59 5 25 4 29 3 14 -4 -15 -6
-2 -10 48 -12 38 -2 71 -1 74 4 2 4 -4 8 -14 9 -10 0 -23 2 -30 2 -6 1 -15 5
-20 10 -4 5 5 6 23 3 17 -3 36 -1 42 5 6 6 29 11 52 11 28 0 40 4 37 12 -3 7
6 12 26 12 18 0 26 -2 18 -5z m89 -18 c0 -2 -9 -4 -20 -4 -11 0 -20 4 -20 9 0
5 9 7 20 4 11 -3 20 -7 20 -9z m55 -4 c3 -5 -1 -10 -10 -10 -9 0 -13 5 -10 10
3 6 8 10 10 10 2 0 7 -4 10 -10z m-485 -19 c-8 -5 -51 -12 -95 -15 -56 -4 -70
-3 -45 4 19 4 38 6 42 4 5 -3 8 0 8 5 0 7 22 11 53 11 34 -1 47 -4 37 -9z
m713 -128 c-13 -2 -35 -2 -50 0 -16 2 -5 4 22 4 28 0 40 -2 28 -4z m427 -33
c0 -5 -4 -10 -9 -10 -6 0 -13 5 -16 10 -3 6 1 10 9 10 9 0 16 -4 16 -10z
m-173 -26 c-3 -3 -12 -4 -19 -1 -8 3 -5 6 6 6 11 1 17 -2 13 -5z m303 -75 c0
-5 5 -7 10 -4 6 3 13 -1 16 -9 9 -23 44 -20 44 4 0 13 5 18 15 14 27 -11 18
-44 -15 -50 -16 -4 -30 -10 -30 -15 0 -5 -9 -9 -20 -9 -18 0 -19 3 -10 20 9
17 7 24 -12 40 -13 11 -17 19 -10 20 6 0 12 -5 12 -11z m182 -23 c21 -4 40
-11 43 -16 7 -11 -96 -1 -109 10 -13 12 4 33 17 22 7 -5 29 -12 49 -16z m-197
4 c3 -5 -1 -10 -9 -10 -8 0 -18 5 -21 10 -3 6 1 10 9 10 8 0 18 -4 21 -10z
m135 -40 c0 -5 -6 -10 -14 -10 -8 0 -23 -3 -33 -6 -16 -6 -16 -5 2 9 23 19 45
22 45 7z m180 -1 c12 -8 10 -9 -7 -4 -14 4 -25 1 -30 -9 -4 -8 -21 -15 -38
-17 -37 -3 -95 10 -95 22 0 12 67 11 75 -1 4 -6 16 -5 33 5 32 17 42 18 62 4z
m60 -32 c0 -18 -43 -37 -69 -30 -35 9 -25 31 17 36 20 2 40 4 45 5 4 1 7 -4 7
-11z m60 -17 c0 -5 -4 -10 -10 -10 -5 0 -10 -6 -10 -13 0 -21 -33 -54 -48 -49
-10 3 -9 8 4 23 9 10 12 19 7 19 -6 0 -16 -7 -23 -15 -7 -8 -17 -12 -22 -9 -6
4 9 19 33 35 46 29 69 36 69 19z m-165 -11 c4 -6 17 -14 29 -19 16 -7 17 -9 4
-9 -9 -1 -20 4 -23 9 -3 6 -15 10 -26 10 -10 0 -19 5 -19 10 0 13 27 13 35 -1z
m290 -18 c24 -5 31 -9 18 -10 -25 -1 -28 -8 -13 -31 6 -10 10 -11 10 -2 0 6 9
12 20 12 11 0 20 5 20 10 0 13 27 13 35 -1 4 -6 0 -9 -8 -7 -18 3 -19 -6 -6
-41 8 -19 14 -22 36 -16 15 3 34 14 42 24 14 16 20 17 51 4 l35 -13 -32 3
c-18 2 -33 0 -33 -5 0 -4 -6 -7 -12 -5 -8 1 -13 -8 -13 -23 0 -18 -6 -25 -20
-26 -29 -3 -75 -23 -52 -23 9 -1 17 -5 17 -11 0 -15 -17 -12 -35 6 -15 15 -17
15 -35 -1 -19 -17 -20 -17 -20 2 0 11 11 30 25 43 25 24 25 40 -1 40 -8 0 -14
-9 -14 -20 0 -13 -7 -20 -19 -20 -15 0 -18 -5 -14 -21 4 -16 2 -20 -8 -17 -9
3 -13 16 -11 39 l4 34 -21 -25 c-16 -20 -20 -21 -21 -8 0 9 -3 18 -7 21 -5 2
-3 2 4 1 7 -2 15 1 19 7 3 6 13 8 22 4 14 -5 31 9 32 26 0 4 -21 9 -47 13 -35
5 -51 2 -64 -10 -10 -9 -23 -13 -28 -9 -19 11 -12 21 24 35 19 8 35 19 35 26
0 13 13 12 85 -5z m149 -40 c3 -5 -7 -11 -22 -14 -31 -6 -37 -3 -27 12 8 13
42 14 49 2z m-214 -18 c0 -12 -52 -33 -63 -26 -13 8 21 33 45 33 10 0 18 -3
18 -7z m330 -23 c-11 -7 -6 -10 20 -10 19 0 42 -5 50 -10 10 -6 -14 -9 -73 -8
-48 1 -82 5 -75 10 7 4 23 8 35 8 12 0 25 5 28 10 3 6 12 10 18 10 7 0 6 -4
-3 -10z m-355 -30 c3 -5 2 -10 -4 -10 -5 0 -13 5 -16 10 -3 6 -2 10 4 10 5 0
13 -4 16 -10z m330 -30 c11 -5 89 -32 174 -60 171 -57 220 -79 336 -155 88
-57 135 -83 210 -116 42 -18 158 -91 175 -109 3 -3 25 -18 50 -32 25 -14 55
-34 67 -45 12 -10 50 -34 84 -53 34 -19 81 -53 104 -75 22 -22 66 -58 95 -80
30 -21 73 -55 96 -74 23 -20 67 -52 99 -70 31 -19 74 -48 94 -63 20 -15 47
-37 61 -47 14 -11 36 -29 49 -40 13 -12 54 -37 90 -58 36 -20 80 -47 97 -60
17 -12 36 -23 42 -23 7 0 12 -4 12 -8 0 -5 10 -14 23 -20 12 -6 63 -45 112
-86 50 -42 122 -97 160 -123 39 -26 72 -51 73 -55 2 -4 8 -8 13 -8 6 0 46 -34
89 -76 44 -42 89 -84 102 -92 43 -30 153 -124 258 -223 109 -102 120 -111 190
-169 59 -49 131 -112 144 -128 6 -8 24 -26 40 -40 61 -55 133 -131 180 -188
26 -32 87 -100 135 -149 158 -166 216 -236 273 -334 31 -53 57 -100 58 -104 0
-4 45 -100 100 -213 55 -113 100 -211 100 -218 0 -54 101 -312 167 -427 27
-46 59 -120 71 -164 13 -44 42 -118 64 -165 48 -102 89 -225 113 -340 31 -149
84 -358 116 -452 16 -50 39 -146 50 -212 11 -67 29 -149 39 -183 10 -34 20
-95 20 -135 2 -68 28 -235 50 -319 6 -20 10 -54 10 -76 0 -22 3 -43 7 -47 4
-4 8 -23 9 -44 1 -20 7 -77 13 -125 15 -114 21 -424 9 -457 -5 -14 -11 -70
-12 -125 -4 -139 -29 -332 -72 -565 -9 -47 -20 -112 -26 -145 -6 -33 -18 -76
-28 -95 -23 -45 -39 -107 -50 -189 -9 -68 -25 -137 -66 -277 -13 -45 -24 -97
-24 -116 0 -19 -9 -52 -20 -73 -12 -22 -28 -74 -36 -115 -8 -41 -21 -91 -28
-110 -7 -19 -23 -66 -35 -105 -12 -38 -29 -88 -38 -110 -8 -22 -19 -49 -23
-60 -18 -48 -98 -251 -160 -410 -12 -30 -89 -193 -121 -255 -15 -30 -76 -152
-135 -270 -59 -118 -110 -217 -113 -220 -3 -3 -15 -23 -26 -45 -11 -22 -37
-65 -57 -97 -21 -31 -63 -105 -93 -164 -45 -86 -164 -270 -215 -331 -5 -7 -10
-17 -10 -23 0 -5 -4 -10 -10 -10 -5 0 -10 -6 -10 -14 0 -8 -4 -16 -8 -18 -4
-1 -37 -41 -72 -88 -35 -47 -71 -92 -80 -100 -15 -14 -186 -240 -220 -291 -8
-12 -23 -29 -32 -38 -10 -8 -18 -20 -18 -25 0 -9 -55 -63 -88 -88 -10 -7 -42
-42 -72 -78 -62 -73 -173 -184 -207 -207 -38 -25 -29 8 13 48 35 33 173 185
204 225 50 63 100 122 133 157 20 21 37 44 37 52 0 7 34 61 76 121 42 60 79
116 82 124 8 21 120 167 130 172 5 1 20 24 33 51 38 75 338 549 360 567 3 3
28 39 56 80 34 50 62 108 84 175 18 55 51 134 73 175 21 41 56 107 76 145 20
39 58 111 85 160 43 81 84 175 173 395 17 41 40 111 52 155 12 44 26 89 31
100 18 45 64 239 75 315 3 25 12 59 20 76 14 31 17 47 50 214 9 47 23 99 31
115 21 41 42 140 43 197 0 29 9 64 25 95 30 57 44 151 51 338 4 125 16 216 35
262 10 26 12 336 3 497 -3 69 -1 132 7 171 10 51 9 71 -5 130 -12 45 -19 125
-21 226 -2 86 -9 176 -14 200 -6 24 -11 77 -11 116 0 48 -7 91 -20 125 -11 29
-20 64 -20 78 0 23 -15 115 -42 250 -6 30 -22 85 -35 123 -14 37 -29 98 -34
135 -4 37 -18 99 -30 137 -11 39 -25 89 -30 113 -5 24 -12 48 -15 54 -4 5 -10
35 -15 66 -12 84 -16 103 -66 272 -34 116 -65 194 -124 312 -43 86 -83 176
-89 200 -7 23 -29 79 -51 123 -39 81 -48 95 -84 150 -27 40 -42 66 -54 91 -5
11 -20 34 -34 50 -14 16 -43 63 -65 104 -73 139 -117 212 -160 270 -10 14 -29
43 -42 65 -14 22 -36 49 -50 60 -42 33 -89 85 -124 139 -19 28 -54 71 -80 96
-25 24 -46 48 -46 52 0 4 -33 40 -73 80 -40 40 -92 96 -116 123 -58 67 -198
210 -257 263 -27 24 -89 80 -139 124 -49 44 -121 110 -160 147 -78 75 -165
150 -240 206 -27 21 -59 46 -70 57 -11 10 -49 42 -85 69 -36 28 -96 81 -135
118 -38 37 -104 89 -145 116 -41 27 -77 52 -80 55 -3 3 -31 19 -64 35 -32 17
-80 49 -106 73 -53 46 -164 128 -280 206 -41 27 -97 69 -125 92 -27 23 -120
80 -205 126 -253 139 -304 168 -325 187 -31 29 -162 110 -253 157 -46 24 -118
69 -160 100 -42 31 -97 65 -122 76 -82 34 -130 62 -130 75 0 14 34 10 75 -7z
m170 10 c3 -5 16 -10 27 -10 27 0 21 -5 -14 -14 -21 -5 -28 -3 -28 8 0 8 -6
17 -12 19 -8 3 -7 6 4 6 9 1 20 -3 23 -9z m-250 -33 c7 -6 0 -7 -20 -3 -16 4
-34 12 -40 17 -7 7 0 8 20 3 17 -3 35 -11 40 -17z m313 1 c-2 -8 6 -12 20 -10
13 1 31 -3 40 -9 14 -9 14 -10 -5 -6 -17 4 -23 0 -23 -11 0 -13 -2 -14 -9 -4
-5 8 -24 17 -42 22 l-34 7 25 11 c14 6 26 11 28 11 1 1 1 -5 0 -11z m-408 -13
c7 -9 19 -14 26 -11 6 2 20 -2 31 -9 17 -14 17 -14 -5 -15 -25 0 -82 29 -82
42 0 13 17 9 30 -7z m573 -47 c15 -5 27 -14 27 -18 0 -16 -20 -21 -37 -10 -15
9 -14 10 7 5 22 -5 23 -4 7 5 -10 7 -30 9 -45 6 -15 -3 -21 -3 -14 0 10 5 10
9 0 22 -11 14 -10 15 7 8 11 -4 32 -13 48 -18z m-367 0 c5 -8 2 -9 -10 -5 -9
4 -15 3 -12 -2 9 -14 -18 -20 -63 -14 -42 6 -55 19 -23 25 48 9 101 7 108 -4z
m64 -29 c0 -5 -5 -9 -11 -9 -6 0 -8 -8 -4 -19 7 -23 -15 -33 -38 -16 -23 16
-22 25 3 25 11 0 20 4 20 10 0 5 -13 7 -30 5 -35 -4 -39 2 -8 14 25 9 68 3 68
-10z m-104 -27 c-4 -3 -14 2 -24 12 -16 18 -16 18 6 6 13 -6 21 -14 18 -18z
m480 6 c-18 -10 -39 -2 -31 12 3 4 15 6 26 3 19 -5 19 -7 5 -15z m-336 -8 c8
-5 12 -11 9 -14 -3 -3 -14 1 -25 9 -21 16 -8 20 16 5z m413 -50 c8 0 17 -7 21
-15 7 -20 -1 -19 -31 5 -14 11 -32 20 -39 20 -8 0 -14 9 -14 20 0 18 2 17 25
-5 13 -14 31 -25 38 -25z m-2 33 c13 -15 12 -15 -8 -4 -24 12 -29 21 -14 21 5
0 15 -7 22 -17z m-435 -18 c3 -18 -27 -29 -40 -14 -8 9 -6 10 8 5 13 -4 17 -2
13 8 -6 15 3 30 12 21 3 -3 6 -12 7 -20z m104 -38 c0 -6 -3 -7 -7 -4 -3 4 -11
3 -17 -3 -7 -5 -17 -5 -26 1 -13 8 -13 10 0 19 8 5 11 10 7 10 -5 0 -5 5 -2
11 8 11 45 -17 45 -34z m377 37 c-3 -3 -12 -4 -19 -1 -8 3 -5 6 6 6 11 1 17
-2 13 -5z m-315 -75 c-6 -27 -20 -30 -51 -11 -35 21 -27 30 24 27 20 -1 29 -6
27 -16z m444 -15 c-3 -9 -6 -18 -6 -20 0 -10 -29 -3 -39 10 -12 14 -8 17 43
25 4 0 5 -6 2 -15z m-366 -14 c12 -8 10 -9 -7 -7 -12 2 -26 6 -29 10 -11 11
19 8 36 -3z m430 -6 c0 -2 -7 -4 -15 -4 -8 0 -15 4 -15 10 0 5 7 7 15 4 8 -4
15 -8 15 -10z m-455 -15 c5 -5 1 -9 -12 -9 -11 0 -27 7 -34 16 -12 15 -11 16
11 9 14 -4 29 -11 35 -16z m410 1 c3 -5 1 -10 -4 -10 -6 0 -11 5 -11 10 0 6 2
10 4 10 3 0 8 -4 11 -10z m-365 -21 c0 -5 -7 -9 -15 -9 -15 0 -20 12 -9 23 8
8 24 -1 24 -14z m55 1 c3 -5 0 -10 -8 -10 -8 0 -17 -7 -21 -15 -7 -18 -26 -20
-26 -2 0 28 42 49 55 27z m410 0 c3 -5 -1 -10 -9 -10 -9 0 -16 5 -16 10 0 6 4
10 9 10 6 0 13 -4 16 -10z m-381 -52 c-5 -18 -4 -19 60 -22 11 -1 21 -7 24
-15 3 -10 0 -12 -11 -8 -10 4 -21 -1 -27 -11 -9 -16 -11 -16 -26 3 -8 11 -22
19 -30 17 -23 -5 -35 40 -16 61 12 13 17 15 24 5 4 -7 5 -21 2 -30z m413 26
c-3 -3 -12 -4 -19 -1 -8 3 -5 6 6 6 11 1 17 -2 13 -5z m-323 -109 c-7 -17 -20
-20 -28 -6 -4 5 0 12 6 14 23 9 28 7 22 -8z m63 -19 c-4 -9 -13 -16 -22 -16
-18 0 -19 5 -4 32 13 24 35 9 26 -16z m443 4 c0 -5 -9 -10 -21 -10 -11 0 -17
5 -14 10 3 6 13 10 21 10 8 0 14 -4 14 -10z m45 -28 c-3 -3 -11 0 -18 7 -9 10
-8 11 6 5 10 -3 15 -9 12 -12z m-410 -8 c-9 -9 -19 -13 -23 -10 -3 4 0 11 8
16 24 15 33 11 15 -6z m401 -22 c-5 -4 -66 26 -66 33 0 3 16 -3 35 -12 19 -9
33 -18 31 -21z m41 -19 c-3 -3 -11 -2 -17 2 -9 6 -9 10 1 16 14 8 27 -7 16
-18z m-374 -17 c10 -8 15 -16 10 -19 -13 -8 -55 12 -48 23 8 13 16 12 38 -4z
m631 -155 c9 -15 -18 -31 -34 -20 -13 8 -13 10 0 19 19 12 27 12 34 1z m-334
-46 c0 -8 -7 -15 -16 -15 -14 0 -14 3 -4 15 7 8 14 15 16 15 2 0 4 -7 4 -15z
m60 -55 c0 -5 -7 -10 -15 -10 -8 0 -15 5 -15 10 0 6 7 10 15 10 8 0 15 -4 15
-10z"/>
<path d="M9296 18771 c-18 -7 -18 -8 -3 -14 20 -7 47 1 47 14 0 11 -17 11 -44
0z"/>
<path d="M9340 18740 c0 -5 7 -10 15 -10 8 0 15 5 15 10 0 6 -7 10 -15 10 -8
0 -15 -4 -15 -10z"/>
<path d="M10635 18291 c-3 -5 -1 -12 4 -15 13 -8 42 4 35 15 -7 12 -31 12 -39
0z"/>
<path d="M5690 18759 c-19 -4 -80 -17 -134 -29 -154 -32 -210 -47 -366 -100
-80 -27 -174 -56 -210 -65 -36 -9 -87 -29 -115 -45 -27 -15 -81 -40 -120 -54
-38 -15 -120 -51 -182 -81 -62 -30 -117 -55 -123 -55 -13 0 -61 -26 -171 -92
-41 -25 -92 -53 -114 -64 -22 -10 -71 -39 -110 -64 -38 -26 -87 -55 -107 -64
-20 -10 -42 -24 -49 -32 -6 -8 -17 -14 -24 -14 -6 0 -20 -9 -30 -20 -10 -11
-27 -22 -39 -26 -11 -4 -43 -21 -71 -39 -27 -17 -99 -63 -160 -102 -60 -39
-121 -76 -134 -83 -14 -7 -34 -22 -45 -32 -12 -11 -40 -33 -63 -49 -23 -16
-48 -37 -55 -47 -7 -10 -33 -33 -58 -51 -25 -19 -70 -58 -100 -87 -30 -29 -83
-74 -117 -101 -34 -27 -86 -72 -116 -99 -71 -64 -80 -72 -190 -152 -50 -38
-126 -102 -167 -143 -41 -41 -101 -94 -132 -119 -110 -86 -313 -277 -368 -345
-30 -37 -95 -109 -144 -159 -48 -50 -109 -116 -134 -146 -26 -30 -76 -89 -112
-130 -36 -41 -81 -95 -100 -120 -19 -25 -44 -55 -56 -68 -11 -13 -36 -48 -55
-78 -19 -30 -73 -107 -120 -172 -47 -64 -94 -133 -104 -152 -10 -19 -21 -37
-24 -40 -15 -12 -71 -89 -71 -98 0 -5 -7 -16 -16 -23 -9 -7 -40 -50 -69 -94
-29 -45 -59 -88 -66 -96 -14 -14 -20 -25 -61 -97 -11 -20 -45 -74 -75 -121
-51 -78 -222 -407 -274 -526 -12 -27 -47 -129 -79 -225 -32 -96 -76 -220 -98
-275 -39 -99 -68 -193 -77 -249 -3 -16 -10 -46 -15 -65 -18 -62 -50 -234 -50
-267 0 -18 -9 -76 -20 -130 -12 -55 -23 -146 -26 -204 -9 -193 -32 -468 -39
-480 -5 -8 -20 -234 -19 -295 1 -97 7 -163 20 -209 8 -27 14 -68 14 -90 0 -22
5 -76 10 -120 33 -266 52 -399 64 -461 39 -191 47 -247 62 -465 8 -129 20
-251 25 -270 5 -19 9 -56 9 -82 0 -26 4 -58 10 -72 5 -14 14 -106 20 -203 11
-172 47 -400 71 -445 6 -11 26 -75 45 -141 38 -135 50 -170 69 -207 13 -27 35
-97 85 -285 18 -66 47 -149 65 -185 40 -79 74 -153 110 -240 15 -36 30 -69 35
-75 4 -5 20 -44 35 -85 30 -80 134 -296 164 -339 10 -14 36 -60 59 -101 23
-41 51 -86 64 -100 63 -70 126 -148 138 -170 7 -14 21 -35 32 -47 11 -12 37
-48 57 -81 39 -63 101 -142 140 -176 38 -34 56 -54 133 -149 145 -179 471
-488 576 -545 28 -15 82 -56 120 -92 101 -94 378 -297 607 -446 66 -42 122
-81 123 -86 2 -4 8 -8 13 -8 5 0 31 -14 57 -31 81 -53 205 -124 265 -153 32
-15 61 -34 64 -42 3 -7 12 -14 21 -14 8 0 46 -18 83 -39 37 -22 78 -42 91 -46
13 -4 50 -23 83 -42 82 -47 368 -193 378 -193 2 0 60 -29 128 -65 68 -36 142
-68 164 -72 22 -3 73 -19 113 -34 40 -16 78 -29 85 -29 7 0 29 -9 49 -20 20
-11 68 -31 105 -44 37 -14 111 -41 163 -60 115 -43 306 -96 346 -96 16 0 84
-7 150 -17 118 -16 123 -16 158 3 21 10 38 24 39 29 3 19 -54 37 -176 56 -67
11 -146 29 -175 39 -29 11 -66 20 -83 20 -17 0 -78 18 -136 40 -59 22 -140 47
-182 56 -42 8 -85 24 -96 34 -11 10 -80 39 -154 64 -73 25 -139 50 -146 56
-18 15 -135 60 -157 60 -16 0 -124 45 -273 115 -27 13 -74 31 -103 40 -29 10
-58 25 -65 34 -17 24 -59 46 -199 104 -20 9 -61 34 -90 55 -29 22 -66 44 -83
48 -16 4 -42 15 -57 25 -14 11 -30 19 -35 19 -5 0 -18 8 -29 18 -10 9 -41 28
-68 41 -26 13 -64 38 -83 55 -20 17 -66 47 -103 66 -82 42 -227 139 -254 169
-11 12 -43 35 -72 52 -29 16 -56 39 -59 49 -4 11 -11 20 -18 20 -13 0 -82 45
-117 76 -14 13 -41 30 -61 38 -20 8 -58 32 -85 54 -27 21 -61 45 -74 52 -81
43 -330 259 -431 375 -14 17 -56 56 -93 89 -36 32 -66 64 -66 71 0 19 -80 113
-174 203 -100 95 -132 130 -185 200 -30 40 -58 72 -62 72 -3 0 -9 8 -13 18 -7
22 -34 67 -66 112 -14 19 -30 42 -35 51 -6 9 -27 41 -47 72 -20 30 -44 70 -54
88 -9 19 -29 50 -43 69 -15 19 -33 49 -40 65 -7 17 -25 53 -39 80 -137 268
-182 360 -182 370 0 6 -11 26 -24 45 -13 19 -26 51 -30 70 -4 19 -11 44 -16
55 -5 11 -16 45 -25 75 -10 30 -24 66 -32 79 -22 34 -73 190 -73 222 0 14 -11
56 -24 91 -14 36 -37 119 -51 184 -15 65 -35 147 -46 180 -10 34 -28 117 -39
184 -11 67 -27 140 -34 163 -17 53 -29 157 -18 157 5 0 17 -30 26 -67 18 -70
34 -122 104 -323 22 -63 50 -149 62 -190 22 -73 125 -300 140 -310 4 -3 19
-30 33 -60 24 -51 79 -156 209 -395 30 -55 76 -131 102 -170 26 -38 85 -126
131 -195 46 -69 87 -129 92 -135 4 -5 36 -53 71 -105 34 -52 80 -115 101 -139
21 -25 54 -70 72 -100 18 -31 47 -69 64 -86 18 -16 42 -46 55 -65 51 -76 130
-164 348 -388 125 -129 231 -241 236 -250 15 -28 59 -72 72 -72 7 0 14 -4 16
-8 2 -5 39 -33 83 -62 44 -29 91 -65 105 -79 14 -15 59 -54 100 -86 41 -33 77
-63 80 -66 3 -4 30 -21 60 -38 76 -45 177 -109 237 -151 106 -75 206 -140 215
-140 14 0 149 -66 213 -104 32 -20 66 -36 75 -36 9 0 25 -9 35 -20 18 -20 172
-100 192 -100 6 0 13 -3 15 -8 1 -4 55 -22 118 -40 63 -19 117 -38 120 -42 7
-11 85 -29 128 -30 27 0 32 4 32 23 0 25 -15 36 -85 61 -126 45 -183 70 -222
96 -24 17 -84 44 -134 60 -49 17 -131 53 -182 79 -51 27 -103 52 -117 56 -30
9 -93 49 -140 89 -19 16 -59 40 -90 54 -152 68 -178 82 -219 116 -24 21 -58
44 -75 53 -17 9 -74 48 -126 87 -52 39 -114 84 -136 99 -23 16 -70 58 -105 94
-35 36 -98 98 -139 137 -124 117 -211 206 -295 301 -44 49 -121 132 -171 185
-50 52 -113 119 -140 149 -27 30 -58 61 -68 70 -25 21 -33 31 -115 136 -38 50
-86 108 -105 130 -19 22 -50 70 -69 105 -19 36 -47 88 -62 115 -15 28 -56 79
-91 115 -35 35 -64 72 -64 81 0 10 -11 30 -24 46 -12 15 -33 58 -45 95 -13 38
-28 71 -34 75 -7 5 -26 28 -42 53 -17 25 -38 54 -49 65 -10 11 -45 76 -78 145
-33 69 -77 154 -98 190 -21 36 -41 81 -45 100 -8 39 -64 150 -75 150 -4 0 -15
26 -24 58 -33 108 -67 207 -101 292 -19 47 -41 120 -48 162 -8 42 -22 84 -31
93 -9 9 -16 25 -16 36 0 10 -13 60 -29 111 -29 95 -35 118 -70 268 -11 47 -31
133 -45 192 -14 59 -26 120 -26 135 -1 16 -8 46 -16 68 -10 26 -18 104 -24
225 -5 116 -14 198 -23 220 -18 47 -6 246 22 347 6 21 11 81 11 133 0 52 7
124 16 160 8 36 18 83 23 105 4 22 20 76 36 120 15 44 33 112 40 151 7 39 20
87 28 105 8 19 22 66 31 105 9 39 36 111 60 160 24 49 46 101 50 116 3 14 16
39 29 55 29 36 77 126 77 145 0 8 -9 23 -20 33 -19 17 -21 17 -38 1 -30 -26
-132 -194 -132 -215 0 -11 -4 -22 -9 -25 -4 -3 -19 -34 -31 -68 -13 -35 -26
-67 -30 -73 -4 -5 -10 -28 -13 -49 -4 -22 -17 -62 -30 -90 -14 -28 -39 -105
-56 -171 -17 -66 -38 -142 -46 -170 -8 -27 -22 -75 -31 -105 -8 -30 -15 -71
-15 -90 1 -19 -6 -64 -14 -100 -8 -36 -17 -82 -20 -102 -3 -21 -11 -38 -17
-38 -7 0 -8 50 -4 167 4 92 9 170 12 174 2 4 6 163 9 354 4 297 8 357 24 423
11 42 19 109 20 147 0 39 5 91 11 115 6 25 13 61 15 81 7 87 16 128 55 249 10
30 21 77 24 103 3 27 12 63 20 80 8 18 20 51 26 74 6 24 25 73 41 110 17 38
42 100 56 138 13 39 38 99 54 135 17 36 44 98 61 139 16 41 38 87 49 102 11
16 25 43 31 61 6 18 19 44 28 58 10 14 39 70 65 125 26 55 63 125 83 155 47
71 62 97 111 195 22 44 48 89 58 100 11 11 32 42 47 68 15 26 34 50 41 55 14
7 65 78 65 89 0 20 275 418 330 478 21 22 51 60 68 85 16 25 52 68 79 95 26
28 63 70 82 95 19 25 49 61 67 80 18 19 52 58 76 85 73 85 238 243 348 333 72
58 193 167 279 251 31 30 68 61 82 70 51 32 115 88 238 211 181 180 296 277
415 347 96 57 166 107 242 174 35 31 94 71 131 89 38 18 79 43 93 55 33 30
118 80 151 88 14 4 38 18 55 32 16 14 47 35 69 46 22 11 55 33 74 49 18 16 67
48 108 72 42 24 83 48 92 53 100 62 140 85 145 85 3 0 43 17 88 39 46 21 106
46 135 55 28 9 89 33 135 52 45 19 103 42 128 50 25 9 67 27 94 40 28 13 59
24 70 24 11 0 33 4 50 9 17 5 81 24 141 41 61 18 144 43 185 56 41 13 84 24
94 24 23 0 117 26 169 48 35 14 65 38 56 46 -10 9 -78 12 -109 5z m50 -17 c0
-13 -63 -33 -73 -23 -6 6 3 13 24 19 44 13 49 14 49 4z m-100 -32 c12 -8 9
-10 -12 -10 -16 0 -28 5 -28 10 0 13 20 13 40 0z m-60 -15 c0 -5 -142 -47
-146 -43 -10 11 18 29 49 31 20 2 38 5 41 7 5 5 56 10 56 5z m-185 -35 c-19
-8 -18 -9 4 -9 35 -1 22 -9 -40 -25 -30 -8 -63 -18 -74 -22 -18 -7 -18 -6 -7
9 12 15 11 15 -19 7 -25 -7 -30 -7 -21 2 6 6 37 13 68 14 30 1 59 5 62 10 4 4
-5 4 -20 0 -16 -3 -28 -2 -28 3 0 9 32 17 75 19 l20 1 -20 -9z m-165 -72 c0
-5 -17 -6 -37 -3 -26 4 -32 3 -18 -3 15 -7 10 -9 -22 -9 -48 0 -53 4 -20 17
27 11 97 9 97 -2z m-130 -22 c0 -11 -81 -40 -117 -41 -66 -3 -51 12 18 18 34
3 66 10 72 16 11 11 27 15 27 7z m-180 -54 c-8 -3 -21 -13 -30 -23 -11 -14
-19 -16 -30 -9 -13 8 -13 10 1 10 9 0 24 9 34 20 10 11 22 17 28 13 7 -4 6 -8
-3 -11z m55 -2 c-3 -5 -11 -10 -16 -10 -6 0 -7 5 -4 10 3 6 11 10 16 10 6 0 7
-4 4 -10z m-128 -51 c-14 -8 -22 -8 -30 0 -8 8 -3 11 19 11 25 -1 27 -2 11
-11z m-63 -23 c-10 -8 -21 -12 -24 -10 -5 6 21 24 34 24 6 0 1 -6 -10 -14z
m-44 -11 c-7 -8 -19 -15 -26 -15 -8 0 -22 -4 -32 -9 -54 -29 -163 -73 -169
-68 -3 4 3 10 13 13 10 4 37 15 59 25 23 10 53 21 68 24 16 4 25 10 22 13 -3
3 9 11 27 18 46 16 52 16 38 -1z m-260 -115 c-8 -5 -22 -9 -30 -9 -10 0 -8 3
5 9 27 12 43 12 25 0z m-61 -24 c-9 -9 -110 -66 -116 -66 -13 0 12 19 57 44
40 22 71 33 59 22z m-157 -96 c-41 -25 -54 -25 -23 0 13 11 31 20 40 20 9 0 3
-8 -17 -20z m-100 -56 c-13 -9 -30 -17 -38 -18 -9 -1 -19 -8 -24 -15 -5 -9
-10 -10 -14 -3 -7 12 23 32 48 32 9 0 16 5 16 10 0 6 8 10 17 10 14 0 13 -3
-5 -16z m-92 -61 c-8 -4 -20 -13 -27 -22 -10 -13 -14 -14 -25 -3 -11 11 -10
12 5 7 12 -5 17 -2 17 9 0 10 8 16 23 15 15 0 17 -2 7 -6z m-60 -37 c0 -3 -4
-8 -10 -11 -5 -3 -10 -1 -10 4 0 6 5 11 10 11 6 0 10 -2 10 -4z m-480 -300 c0
-3 -4 -8 -10 -11 -5 -3 -10 -1 -10 4 0 6 5 11 10 11 6 0 10 -2 10 -4z m-330
-236 c0 -5 -4 -10 -10 -10 -5 0 -10 5 -10 10 0 6 5 10 10 10 6 0 10 -4 10 -10z
m-38 -32 c-7 -7 -12 -8 -12 -2 0 14 12 26 19 19 2 -3 -1 -11 -7 -17z m-162
-131 c0 -2 -10 -12 -22 -23 l-23 -19 19 23 c18 21 26 27 26 19z m-80 -80 c0
-2 -16 -18 -35 -37 -19 -19 -35 -30 -35 -26 0 4 14 21 31 37 29 27 39 34 39
26z"/>
<path d="M9590 18701 c0 -14 5 -19 15 -14 17 6 15 25 -3 31 -7 2 -12 -5 -12
-17z"/>
<path d="M9886 18582 c-13 -12 -5 -22 19 -22 14 0 25 4 25 9 0 10 -36 21 -44
13z"/>
<path d="M7720 17333 c-19 -2 -73 -11 -118 -19 -46 -8 -127 -19 -180 -24 -114
-10 -298 -64 -375 -109 -29 -17 -104 -56 -167 -87 -224 -110 -248 -123 -351
-192 -61 -40 -100 -75 -129 -115 -91 -124 -117 -178 -167 -357 -24 -88 -25
-356 -1 -485 9 -49 19 -130 23 -180 8 -112 30 -236 61 -341 13 -45 28 -110 34
-145 12 -75 32 -162 54 -239 8 -30 20 -88 27 -127 9 -61 14 -73 30 -73 21 0
36 41 23 62 -5 7 -11 49 -15 93 -8 87 -32 229 -48 285 -5 19 -14 83 -20 141
-5 59 -16 120 -25 137 -9 17 -16 41 -16 52 0 28 -30 119 -41 126 -12 7 -12 74
0 74 5 0 29 -18 53 -40 23 -23 54 -44 68 -47 14 -3 35 -12 46 -20 32 -21 145
-28 168 -11 28 22 13 56 -29 64 -88 16 -203 77 -268 141 -28 27 -52 43 -61 40
-38 -15 -48 362 -11 435 8 17 15 42 15 55 0 13 15 56 33 96 19 40 39 87 47
105 14 37 131 143 226 206 33 22 77 51 99 66 40 27 344 180 358 180 3 0 30 11
59 24 100 44 202 72 413 111 50 10 113 24 141 32 67 18 117 19 424 6 233 -9
262 -13 340 -37 112 -36 102 -31 258 -139 90 -62 105 -79 136 -162 15 -38 33
-81 40 -95 32 -59 44 -143 42 -305 -1 -88 -6 -167 -11 -175 -5 -8 -8 -51 -7
-97 1 -80 0 -83 -28 -103 -16 -11 -39 -37 -51 -58 -35 -58 -68 -91 -140 -137
-37 -24 -76 -59 -88 -79 -13 -20 -30 -36 -39 -36 -9 0 -46 -14 -80 -30 -35
-17 -68 -30 -74 -30 -10 0 -29 -8 -138 -56 -55 -24 -156 -48 -169 -39 -4 2
-18 -3 -30 -11 -16 -12 -21 -24 -19 -47 l3 -32 77 1 c55 1 87 7 115 21 21 11
56 26 77 33 22 7 65 28 96 46 31 18 67 35 81 39 13 3 42 19 64 35 22 15 77 53
122 84 44 31 103 78 129 106 32 33 51 47 58 40 16 -16 10 -101 -12 -155 -25
-63 -49 -162 -57 -239 -4 -32 -15 -79 -26 -104 -11 -25 -24 -61 -29 -81 -5
-20 -14 -54 -20 -76 -5 -22 -16 -78 -24 -125 -8 -47 -28 -141 -44 -210 -44
-180 -72 -308 -72 -324 0 -22 28 -27 42 -8 7 9 29 29 49 44 35 26 38 33 54
120 9 51 23 107 32 123 8 17 19 55 23 85 30 197 34 225 61 360 11 60 46 202
65 270 9 30 22 89 30 130 7 41 20 98 29 125 23 69 48 217 51 295 1 36 5 119 9
185 6 94 4 139 -9 205 -25 127 -94 337 -134 405 -89 152 -138 187 -342 247
-19 6 -62 21 -95 34 -33 13 -98 28 -145 34 -78 9 -499 12 -580 3z"/>
<path d="M8190 16596 c-69 -46 -227 -116 -320 -140 -52 -14 -111 -32 -130 -40
-19 -8 -66 -21 -104 -30 -39 -9 -90 -30 -115 -46 l-46 -30 65 0 c36 0 99 7
140 16 41 8 111 19 155 23 63 6 99 17 168 49 49 23 93 42 98 42 5 0 27 9 48
20 54 27 101 86 101 127 0 40 -13 42 -60 9z"/>
<path d="M7089 15249 c-11 -8 -11 -12 -1 -16 30 -12 128 -66 142 -79 14 -12
61 -27 170 -55 19 -5 54 -9 78 -9 36 0 44 4 54 25 6 14 17 24 24 21 19 -7 28
12 14 29 -21 25 -298 80 -389 77 -24 -1 -51 3 -60 8 -11 5 -23 5 -32 -1z"/>
<path d="M2679 13673 c-22 -38 -42 -97 -81 -243 -18 -70 -42 -150 -117 -396
-17 -55 -31 -108 -31 -118 0 -17 -23 -98 -86 -306 -14 -47 -55 -170 -90 -275
-35 -104 -73 -226 -84 -270 -12 -44 -30 -98 -41 -121 -10 -22 -19 -45 -19 -51
0 -6 -13 -44 -29 -85 -36 -88 -121 -360 -121 -385 0 -19 -57 -192 -86 -258
-20 -48 -43 -140 -44 -176 0 -26 15 -39 46 -39 18 0 58 87 79 170 9 36 27 90
40 120 13 30 35 98 49 150 32 123 80 283 102 340 9 25 20 65 24 90 4 25 15 72
25 105 9 33 23 83 30 110 7 28 29 89 49 136 20 47 52 148 71 224 20 76 46 165
59 199 13 34 27 72 31 86 3 14 31 102 60 195 30 94 63 202 74 240 11 39 31
111 44 160 14 50 28 106 32 125 3 19 16 74 28 123 17 70 24 87 39 87 10 0 22
-8 25 -17 4 -10 23 -39 42 -65 20 -26 52 -68 71 -95 19 -26 43 -55 52 -64 10
-9 18 -19 18 -23 0 -9 122 -186 172 -251 21 -27 62 -81 90 -120 28 -38 74 -97
103 -130 28 -33 62 -76 75 -95 14 -19 41 -52 62 -73 33 -33 39 -36 61 -26 38
17 124 122 173 209 24 44 77 123 116 176 40 53 91 122 113 154 22 31 58 79 80
105 22 27 51 62 65 79 14 17 38 47 52 66 58 75 127 143 132 129 67 -188 116
-342 116 -366 0 -15 6 -23 18 -23 14 0 14 -2 3 -9 -11 -7 -12 -17 -3 -53 19
-77 28 -122 50 -258 5 -27 12 -44 20 -42 7 1 12 -2 12 -8 0 -5 -4 -10 -10 -10
-5 0 -10 -10 -10 -21 0 -24 52 -214 74 -269 8 -19 21 -68 31 -109 9 -41 25
-97 36 -125 10 -28 19 -61 19 -73 0 -11 9 -45 19 -75 11 -29 22 -70 26 -90 3
-21 10 -38 15 -38 6 0 10 -13 10 -28 0 -16 11 -61 24 -100 14 -40 23 -72 21
-72 -2 0 1 -15 6 -32 6 -18 12 -55 14 -82 3 -27 17 -77 33 -110 16 -34 37 -92
47 -129 9 -37 23 -74 30 -80 6 -7 10 -18 8 -24 -3 -7 7 -48 21 -91 14 -43 39
-129 55 -191 31 -118 52 -161 77 -161 22 0 26 21 14 71 -7 24 -14 59 -17 77
-3 18 -9 35 -14 38 -5 3 -9 15 -9 28 0 26 -44 206 -66 275 -8 24 -17 61 -19
83 -3 21 -7 55 -10 77 -2 21 -13 62 -24 92 -10 30 -26 79 -34 109 -8 30 -27
96 -40 145 -14 50 -28 99 -30 110 -18 76 -61 228 -77 270 -46 121 -106 351
-115 441 -4 32 -17 95 -30 139 -56 186 -66 227 -93 356 -16 74 -36 146 -45
160 -9 13 -19 44 -23 69 -4 25 -13 54 -21 66 -7 11 -24 53 -38 94 -34 101 -39
105 -86 78 -22 -12 -52 -36 -67 -52 -57 -64 -117 -140 -129 -162 -13 -26 -56
-82 -114 -148 -65 -74 -173 -220 -213 -289 -22 -37 -43 -67 -48 -67 -4 0 -8
-4 -8 -9 0 -5 -22 -42 -50 -82 -27 -40 -50 -79 -50 -86 0 -7 -5 -13 -12 -13
-15 0 -145 124 -183 175 -16 22 -46 57 -67 79 -21 21 -38 42 -38 47 0 5 -15
26 -34 47 -19 21 -50 59 -68 84 -18 25 -49 67 -68 93 -19 27 -57 73 -84 104
-27 31 -61 75 -76 98 -51 80 -174 213 -196 213 -7 0 -22 -17 -35 -37z m1563
-15 c-18 -18 -14 -31 7 -25 14 3 17 0 13 -15 -3 -14 -10 -17 -26 -12 -11 4
-23 8 -25 10 -7 7 22 54 33 54 6 0 5 -5 -2 -12z m-1461 -35 c13 -16 12 -17 -3
-4 -10 7 -18 15 -18 17 0 8 8 3 21 -13z m1423 -35 c-3 -5 -11 -8 -17 -8 -8 0
-8 3 2 9 9 6 10 11 2 15 -6 4 -11 12 -11 19 0 6 6 2 14 -8 8 -11 12 -23 10
-27z m76 -18 c0 -5 -4 -10 -10 -10 -5 0 -10 5 -10 10 0 6 5 10 10 10 6 0 10
-4 10 -10z m-140 -4 c0 -2 -7 -9 -15 -16 -13 -11 -14 -10 -9 4 5 14 24 23 24
12z m184 -113 c-21 -21 -43 -1 -24 22 9 11 16 12 26 4 11 -9 11 -14 -2 -26z
m-1368 -54 c8 -14 -10 -11 -32 6 -18 13 -18 14 4 8 12 -3 25 -9 28 -14z m1380
7 c16 -17 18 -26 4 -26 -5 0 -14 9 -20 20 -12 23 -5 26 16 6z m-1729 -38 c-3
-8 -6 -5 -6 6 -1 11 2 17 5 13 3 -3 4 -12 1 -19z m1743 -18 c0 -5 -2 -10 -4
-10 -3 0 -8 5 -11 10 -3 6 -1 10 4 10 6 0 11 -4 11 -10z m27 -50 c-2 -27 -3
-28 -14 -13 -17 23 -16 43 2 43 10 0 14 -9 12 -30z m33 -86 c0 -8 -4 -14 -10
-14 -5 0 -10 9 -10 21 0 11 5 17 10 14 6 -3 10 -13 10 -21z m7 -66 c-3 -8 -6
-5 -6 6 -1 11 2 17 5 13 3 -3 4 -12 1 -19z m-20 -20 c-3 -8 -6 -5 -6 6 -1 11
2 17 5 13 3 -3 4 -12 1 -19z m26 -25 c-7 -3 -13 -12 -13 -20 0 -9 -2 -14 -5
-11 -4 3 -3 18 1 33 5 20 9 24 18 14 8 -8 8 -13 -1 -16z m6 -90 c0 -25 -1 -26
-9 -8 -12 27 -12 35 0 35 6 0 10 -12 9 -27z m31 -16 c0 -5 -4 -5 -10 -2 -5 3
-10 14 -10 23 0 15 2 15 10 2 5 -8 10 -19 10 -23z m-1210 -33 c0 -8 -4 -12
-10 -9 -5 3 -10 10 -10 16 0 5 5 9 10 9 6 0 10 -7 10 -16z m1177 -6 c-3 -8 -6
-5 -6 6 -1 11 2 17 5 13 3 -3 4 -12 1 -19z m27 7 c3 -8 1 -15 -4 -15 -6 0 -10
7 -10 15 0 8 2 15 4 15 2 0 6 -7 10 -15z m36 -59 c0 -15 -42 -14 -47 1 -2 6 4
13 14 15 23 6 33 0 33 -16z m-13 -32 c-3 -3 -12 -4 -19 -1 -8 3 -5 6 6 6 11 1
17 -2 13 -5z m27 -30 c3 -8 2 -12 -4 -9 -6 3 -10 10 -10 16 0 14 7 11 14 -7z
m-17 -60 c-9 -9 -28 6 -21 18 4 6 10 6 17 -1 6 -6 8 -13 4 -17z m-1083 -20 c3
-8 2 -12 -4 -9 -6 3 -10 10 -10 16 0 14 7 11 14 -7z m1089 -28 c23 -17 22 -32
-3 -39 -13 -3 -20 0 -20 8 0 7 -3 20 -6 29 -7 19 5 20 29 2z m8 -99 c-8 -8
-11 -7 -11 4 0 20 13 34 18 19 3 -7 -1 -17 -7 -23z m-2101 -33 c0 -8 -5 -12
-10 -9 -6 4 -8 11 -5 16 9 14 15 11 15 -7z m2169 -73 c0 -16 -3 -20 -6 -11 -8
21 -36 39 -48 33 -5 -4 -1 3 10 14 18 19 21 20 33 5 6 -9 12 -27 11 -41z
m-2192 7 c-3 -8 -6 -5 -6 6 -1 11 2 17 5 13 3 -3 4 -12 1 -19z m2177 -34 c3
-9 6 -27 6 -40 0 -13 5 -24 11 -24 7 0 8 -11 4 -29 -5 -22 -2 -32 12 -40 14
-8 15 -12 6 -22 -14 -14 -28 14 -43 86 -5 22 -12 50 -15 63 -8 25 9 31 19 6z
m76 -183 c0 -11 -4 -9 -14 4 -8 11 -12 24 -9 28 7 11 23 -12 23 -32z m-36 -17
c3 -8 2 -12 -4 -9 -6 3 -10 10 -10 16 0 14 7 11 14 -7z m50 -20 c3 -8 2 -12
-4 -9 -6 3 -10 10 -10 16 0 14 7 11 14 -7z m4 -65 c-16 -10 -25 -2 -34 34 l-7
29 28 -28 c21 -21 24 -29 13 -35z m23 -41 c3 -25 -3 -41 -19 -57 -15 -15 -15
-14 -9 2 4 10 7 30 7 43 0 24 19 35 21 12z m26 -80 c-3 -8 -6 -5 -6 6 -1 11 2
17 5 13 3 -3 4 -12 1 -19z m-17 -12 c0 -8 -7 -16 -15 -20 -10 -4 -15 1 -15 14
0 11 7 20 15 20 8 0 15 -6 15 -14z m8 -50 c0 -21 -3 -23 -14 -11 -16 16 -19
29 -4 20 6 -3 10 -1 10 4 0 6 2 11 4 11 2 0 4 -11 4 -24z m42 -55 c0 -32 -6
-24 -14 19 -4 25 -3 31 4 20 5 -8 10 -26 10 -39z m-21 -8 c2 -2 -3 -3 -11 -3
-9 0 -19 7 -22 16 -6 15 -4 15 11 3 10 -7 20 -15 22 -16z m7 -71 c-4 -3 -11 0
-16 8 -15 24 -11 33 6 15 9 -9 13 -19 10 -23z m39 -91 c3 -5 1 -12 -5 -16 -5
-3 -10 1 -10 9 0 18 6 21 15 7z m5 -55 c0 -3 -4 -8 -10 -11 -5 -3 -10 -1 -10
4 0 6 5 11 10 11 6 0 10 -2 10 -4z m67 -298 c-3 -8 -6 -5 -6 6 -1 11 2 17 5
13 3 -3 4 -12 1 -19z m87 -194 c8 -22 -4 -40 -15 -23 -11 18 -11 39 0 39 5 0
12 -7 15 -16z m78 -309 c3 -13 1 -22 -3 -19 -9 5 -13 44 -5 44 2 0 6 -11 8
-25z"/>
<path d="M6310 13630 c-17 -34 -42 -93 -56 -133 -15 -40 -34 -88 -44 -107 -48
-91 -120 -270 -120 -295 0 -9 -7 -33 -16 -53 -22 -52 -28 -68 -54 -147 -13
-38 -32 -90 -42 -114 -11 -24 -26 -73 -33 -110 -8 -36 -23 -91 -33 -121 -44
-129 -191 -509 -232 -601 -17 -36 -30 -71 -30 -77 0 -7 -4 -20 -9 -30 -4 -9
-19 -51 -32 -92 -13 -41 -32 -93 -44 -115 -38 -76 -83 -192 -120 -315 -21 -70
-62 -180 -73 -193 -5 -7 -12 -29 -16 -49 -4 -20 -13 -49 -21 -64 -21 -41 5
-82 44 -69 20 6 41 54 66 155 19 72 81 240 96 254 5 6 9 19 9 30 0 27 21 84
42 116 9 14 26 57 38 95 44 140 73 221 100 275 15 30 40 98 55 150 15 52 39
117 52 144 28 55 54 136 48 146 -5 8 32 129 44 144 5 6 14 28 21 49 l12 38
301 -2 c166 -1 311 -5 321 -9 11 -3 39 -3 63 0 41 7 46 5 68 -24 13 -17 28
-51 35 -76 6 -25 19 -61 27 -80 34 -79 42 -97 61 -150 11 -30 41 -120 67 -200
52 -158 89 -267 130 -375 66 -175 87 -234 106 -290 10 -33 22 -67 26 -75 7
-18 49 -167 63 -225 34 -144 60 -155 146 -67 24 25 23 46 -7 97 -10 17 -24 55
-32 85 -8 30 -25 71 -39 91 -14 21 -29 50 -35 65 -6 16 -25 65 -43 109 -17 44
-58 159 -90 255 -66 197 -82 240 -93 257 -4 7 -27 68 -51 135 -25 68 -63 175
-86 238 -23 63 -54 156 -68 205 -13 50 -30 104 -37 120 -7 17 -34 95 -59 175
-26 80 -69 206 -95 280 -27 74 -66 189 -86 255 -21 66 -50 147 -65 180 -15 33
-33 78 -40 100 -17 56 -37 75 -76 75 -31 0 -36 -5 -64 -60z m76 31 c-3 -5 -14
-11 -25 -14 -14 -3 -18 -1 -14 9 3 8 14 14 25 14 10 0 17 -4 14 -9z m29 -21
c3 -5 1 -10 -4 -10 -6 0 -11 5 -11 10 0 6 2 10 4 10 3 0 8 -4 11 -10z m-22
-77 c40 -86 67 -160 83 -233 8 -36 21 -82 29 -103 8 -20 15 -45 15 -55 0 -9
13 -45 30 -80 16 -35 29 -66 28 -70 -1 -4 2 -19 6 -34 9 -30 21 -36 29 -15 2
6 7 9 11 5 4 -3 2 -16 -4 -28 -8 -15 -9 -29 -2 -44 11 -24 39 -92 76 -181 16
-39 30 -60 40 -59 9 1 16 -4 16 -12 0 -8 -8 -14 -17 -15 -87 -2 -733 6 -741
10 -1 0 6 18 16 39 11 20 34 84 52 142 17 58 43 128 57 155 14 28 34 74 44
104 10 30 22 59 27 65 4 6 18 38 31 71 13 33 36 92 51 130 15 39 33 95 40 125
16 71 40 140 49 140 4 0 19 -26 34 -57z m12 47 c3 -5 -1 -10 -10 -10 -9 0 -13
5 -10 10 3 6 8 10 10 10 2 0 7 -4 10 -10z m30 -39 c-3 -6 -11 -8 -17 -5 -6 4
-5 9 3 15 16 10 23 4 14 -10z m-145 -87 c-7 -24 -17 -44 -21 -44 -12 0 -11 5
6 47 8 19 16 45 16 57 1 18 2 19 6 2 3 -10 -1 -38 -7 -62z m170 37 c0 -8 7
-23 17 -33 14 -16 14 -18 0 -18 -9 0 -18 12 -22 31 -5 23 -9 28 -16 18 -10
-17 -12 1 -3 26 5 13 8 14 15 3 5 -7 9 -19 9 -27z m20 -87 c0 -8 -5 -12 -10
-9 -6 4 -8 11 -5 16 9 14 15 11 15 -7z m-210 -24 c0 -5 -7 -10 -16 -10 -10 0
-14 -5 -10 -15 3 -8 1 -28 -5 -43 -7 -16 -13 -22 -16 -14 -3 7 0 19 7 27 6 8
9 18 6 24 -9 14 4 41 20 41 8 0 14 -4 14 -10z m255 -63 c4 -40 2 -45 -9 -35
-8 7 -11 17 -8 22 3 5 5 22 4 38 -1 45 7 28 13 -25z m-313 -71 c-6 -11 -14
-32 -17 -46 -10 -40 -39 -90 -49 -87 -17 6 -18 27 -1 27 20 0 53 72 35 78 -7
3 -3 10 9 19 22 15 29 43 10 43 -5 0 -7 5 -3 11 13 21 27 -21 16 -45z m343
-44 c-4 -21 -10 -31 -13 -22 -3 8 -9 18 -15 21 -12 8 1 31 14 24 5 -4 9 1 9
10 0 9 -4 13 -10 10 -6 -4 -7 1 -3 11 11 30 26 -13 18 -54z m-385 -11 c0 -6
-4 -13 -10 -16 -5 -3 -10 1 -10 9 0 9 5 16 10 16 6 0 10 -4 10 -9z m416 -94
c-2 -7 -5 -2 -5 10 -1 12 -5 25 -11 28 -5 3 -10 18 -10 33 1 23 3 20 16 -16 8
-24 13 -49 10 -55z m-13 -5 c6 -8 14 -9 21 -3 8 7 12 3 14 -15 1 -15 -4 -24
-12 -24 -17 0 -46 43 -45 67 0 14 2 15 6 3 3 -8 10 -21 16 -28z m-443 -1 c0
-5 3 -18 6 -28 6 -15 4 -16 -6 -6 -16 15 -22 43 -9 43 5 0 9 -4 9 -9z m-10
-69 c0 -13 -12 -22 -22 -16 -10 6 -1 24 13 24 5 0 9 -4 9 -8z m484 -24 c-6 -9
-3 -9 9 1 15 12 18 10 27 -14 15 -41 12 -51 -9 -28 -11 12 -25 23 -32 25 -11
4 -5 28 7 28 3 0 2 -6 -2 -12z m-517 -50 c-3 -7 -5 -2 -5 12 0 14 2 19 5 13 2
-7 2 -19 0 -25z m583 -53 c0 -5 -5 -3 -10 5 -5 8 -10 20 -10 25 0 6 5 3 10 -5
5 -8 10 -19 10 -25z m-609 -21 c-9 -28 -9 -29 -10 -3 -1 14 2 29 6 32 11 12
13 2 4 -29z m619 -9 c9 -10 9 -15 1 -15 -6 0 -11 -4 -11 -10 0 -5 5 -9 11 -7
5 1 16 -15 23 -35 8 -21 10 -38 5 -38 -5 0 -9 7 -9 16 0 14 -2 15 -17 3 -15
-13 -15 -12 -5 8 13 24 16 40 5 30 -5 -6 -43 45 -43 58 0 11 28 4 40 -10z
m-651 -82 c-15 -47 -38 -83 -52 -83 -5 0 -3 8 5 18 20 23 48 86 49 109 0 10 3
13 6 6 2 -7 -1 -30 -8 -50z m701 -59 c0 -8 -4 -12 -10 -9 -5 3 -10 10 -10 16
0 5 5 9 10 9 6 0 10 -7 10 -16z m6 -51 c-10 -10 -19 5 -10 18 6 11 8 11 12 0
2 -7 1 -15 -2 -18z m-756 -19 c0 -8 -4 -12 -10 -9 -5 3 -10 10 -10 16 0 5 5 9
10 9 6 0 10 -7 10 -16z m336 -77 c11 -11 82 -8 89 3 3 6 43 9 88 9 45 -1 74
-3 65 -6 -30 -8 -20 -25 10 -19 56 12 211 14 215 2 6 -16 -13 -31 -45 -34 -30
-3 -39 14 -10 20 10 3 3 6 -16 9 -25 4 -32 2 -28 -8 4 -9 -4 -13 -24 -13 -17
0 -30 -4 -30 -10 0 -5 -10 -10 -22 -9 -22 0 -22 1 -3 9 14 6 16 9 5 10 -22 3
-22 3 -59 -4 -26 -5 -32 -3 -28 8 4 10 0 12 -15 8 -11 -2 -23 0 -27 6 -5 8
-17 9 -38 3 -17 -5 -59 -7 -94 -6 -35 2 -86 3 -113 3 -27 1 -52 6 -56 12 -4 7
-16 10 -26 8 -16 -4 -14 -7 11 -18 17 -7 33 -13 38 -12 4 1 7 -2 7 -8 0 -16
-35 -10 -116 21 -13 4 -26 3 -33 -4 -9 -9 -14 -8 -21 3 -9 14 -11 12 -9 -7 0
-10 -64 -24 -71 -16 -3 3 1 8 8 10 6 3 12 11 12 18 0 8 10 15 23 17 40 7 306
3 313 -5z m-369 -49 c-3 -8 -6 -5 -6 6 -1 11 2 17 5 13 3 -3 4 -12 1 -19z
m338 12 c4 -6 -5 -10 -20 -10 -15 0 -24 4 -20 10 3 6 12 10 20 10 8 0 17 -4
20 -10z m203 -5 c-8 -8 -77 -9 -85 -2 -3 4 15 7 42 7 27 0 46 -2 43 -5z m312
-25 c0 -11 -4 -20 -10 -20 -5 0 -10 9 -10 20 0 11 5 20 10 20 6 0 10 -9 10
-20z m-40 -21 c0 -24 -23 -21 -28 4 -2 10 3 17 12 17 10 0 16 -9 16 -21z
m-833 -11 c-3 -8 -6 -5 -6 6 -1 11 2 17 5 13 3 -3 4 -12 1 -19z m886 -32 c3
-7 -6 -11 -22 -10 -37 3 -37 3 -23 12 18 12 40 11 45 -2z m37 -101 c0 -7 9
-35 21 -62 11 -26 21 -57 23 -68 1 -11 9 -34 19 -52 19 -36 24 -68 6 -43 -8
11 -12 12 -16 3 -9 -23 -22 -13 -32 25 -7 24 -7 38 -1 40 15 5 -1 54 -24 73
-18 15 -19 19 -6 35 12 15 13 16 1 9 -11 -6 -13 -4 -8 8 5 14 2 16 -18 11 -15
-4 -25 -2 -25 5 0 6 6 11 14 11 8 0 17 7 20 16 7 17 26 10 26 -11z m-988 -67
c-7 -7 -12 -23 -12 -36 0 -13 -4 -21 -9 -17 -5 3 -13 -4 -16 -16 -4 -11 -9
-18 -11 -16 -8 8 37 97 49 97 7 0 7 -4 -1 -12z m998 -48 c0 -5 -4 -10 -10 -10
-5 0 -10 5 -10 10 0 6 5 10 10 10 6 0 10 -4 10 -10z m-1017 -35 c-3 -9 -8 -14
-10 -11 -3 3 -2 9 2 15 9 16 15 13 8 -4z m-21 -29 c6 4 8 1 4 -7 -3 -8 -9 -22
-12 -31 -4 -10 -10 -18 -14 -18 -8 0 -25 -49 -22 -62 1 -5 -5 -8 -12 -8 -13 0
-13 5 1 38 8 20 18 42 21 47 4 6 7 15 8 20 4 35 6 40 11 27 2 -6 9 -9 15 -6z
m1120 -81 c9 -12 -11 -37 -23 -29 -14 8 -11 44 4 42 6 -2 15 -7 19 -13z
m-1186 -100 c-9 -21 -16 -51 -16 -67 0 -17 -6 -31 -16 -35 -24 -9 -32 9 -17
37 l15 25 -6 -27 c-4 -16 -2 -28 4 -28 5 0 10 20 10 45 0 25 4 45 9 45 5 0 12
12 15 26 4 15 9 24 12 21 3 -3 -2 -22 -10 -42z m1209 26 c0 -8 -6 -16 -12 -18
-7 -3 -13 1 -13 7 0 7 -7 10 -15 6 -8 -3 -15 0 -15 7 0 8 12 13 28 12 16 0 27
-5 27 -14z m30 -71 c10 -22 15 -43 11 -47 -4 -4 -9 3 -13 15 -3 12 -9 22 -13
22 -4 0 -10 11 -12 25 -8 38 7 30 27 -15z m-45 15 c0 -8 -2 -15 -4 -15 -2 0
-6 7 -10 15 -3 8 -1 15 4 15 6 0 10 -7 10 -15z m22 -75 c5 -33 -6 -28 -17 8
-3 12 -2 22 3 22 5 0 12 -14 14 -30z m-1291 -43 c-8 -8 -11 -7 -11 4 0 20 13
34 18 19 3 -7 -1 -17 -7 -23z m10 -30 c-10 -9 -11 -8 -5 6 3 10 9 15 12 12 3
-3 0 -11 -7 -18z m1313 8 c3 -8 2 -23 -1 -32 -6 -15 -7 -15 -14 3 -11 27 -11
44 0 44 5 0 11 -7 15 -15z m-1336 -28 c1 -17 -5 -49 -14 -70 -22 -48 -29 -42
-9 7 9 21 13 46 10 57 -5 15 0 39 8 39 1 0 3 -15 5 -33z m1352 -54 c0 -22 -2
-25 -10 -13 -13 20 -13 40 0 40 6 0 10 -12 10 -27z m64 -29 c9 -22 8 -24 -9
-18 -8 4 -15 12 -15 20 0 19 16 18 24 -2z m-1454 -46 c0 -7 -8 -22 -17 -33
-14 -18 -15 -18 -9 -2 3 10 6 25 6 33 0 8 5 14 10 14 6 0 10 -6 10 -12z m1461
-11 c-10 -9 -11 -8 -5 6 3 10 9 15 12 12 3 -3 0 -11 -7 -18z m-15 -54 c-10
-10 -19 5 -10 18 6 11 8 11 12 0 2 -7 1 -15 -2 -18z m-1496 -33 c-6 -12 -14
-20 -17 -17 -2 3 1 14 8 26 17 26 24 19 9 -9z m27 8 c-3 -8 -6 -5 -6 6 -1 11
2 17 5 13 3 -3 4 -12 1 -19z m1488 -9 c11 -16 1 -19 -13 -3 -7 8 -8 14 -3 14
5 0 13 -5 16 -11z m-1505 -39 c-6 -12 -14 -19 -17 -17 -2 3 1 15 7 27 6 12 14
19 17 17 2 -3 -1 -15 -7 -27z m-50 -49 c-20 -57 -37 -83 -26 -41 10 35 38 101
42 97 2 -2 -5 -27 -16 -56z m1570 39 c9 -16 8 -18 -5 -14 -8 4 -15 12 -15 20
0 20 7 17 20 -6z m-1549 -47 c-12 -20 -14 -14 -5 12 4 9 9 14 11 11 3 -2 0
-13 -6 -23z m1569 -13 c0 -11 -2 -20 -4 -20 -2 0 -6 9 -9 20 -3 11 -1 20 4 20
5 0 9 -9 9 -20z m-1588 -42 c-7 -7 -12 -20 -12 -30 0 -10 -7 -18 -16 -18 -13
0 -12 5 6 30 12 17 24 30 28 30 3 0 1 -5 -6 -12z m1608 -10 c0 -16 -3 -19 -11
-11 -6 6 -8 16 -5 22 11 17 16 13 16 -11z m19 -52 c-9 -8 -10 -7 -5 7 3 10 7
24 7 30 1 7 3 4 6 -7 3 -10 -1 -23 -8 -30z m-1661 -26 c-7 -11 -16 -20 -20
-20 -11 0 -10 9 5 25 18 21 29 18 15 -5z m1716 -5 c3 -8 1 -15 -4 -15 -6 0
-10 7 -10 15 0 8 2 15 4 15 2 0 6 -7 10 -15z m-30 -46 c-8 -14 -24 -10 -24 6
0 9 6 12 15 9 8 -4 12 -10 9 -15z m-1717 -35 c-3 -3 -12 -4 -19 -1 -8 3 -5 6
6 6 11 1 17 -2 13 -5z m1768 -37 c0 -26 -20 -25 -23 2 -3 16 1 22 10 19 7 -3
13 -12 13 -21z m32 -11 c-4 -9 1 -16 11 -19 12 -3 9 -6 -11 -12 -36 -10 -45 0
-21 24 23 24 28 25 21 7z m-1828 -30 c-9 -19 -15 -23 -21 -14 -4 7 -8 20 -8
28 0 13 1 13 10 0 8 -12 10 -12 16 3 3 10 8 16 11 14 2 -3 -2 -16 -8 -31z
m1778 -53 c-3 -10 -5 -4 -5 12 0 17 2 24 5 18 2 -7 2 -21 0 -30z m28 17 c3 -5
1 -10 -4 -10 -6 0 -11 5 -11 10 0 6 2 10 4 10 3 0 8 -4 11 -10z m-1860 -50
c-4 -12 -9 -19 -12 -17 -3 3 -2 15 2 27 4 12 9 19 12 17 3 -3 2 -15 -2 -27z
m1870 20 c3 -5 -1 -10 -10 -10 -9 0 -13 5 -10 10 3 6 8 10 10 10 2 0 7 -4 10
-10z m39 -26 c9 -3 16 -10 16 -16 0 -5 -4 -7 -9 -3 -15 8 -22 -11 -15 -40 6
-25 36 -37 33 -12 -1 6 -1 21 0 32 1 15 4 16 13 7 10 -10 10 -15 0 -21 -11 -7
-10 -9 2 -14 18 -7 22 -42 6 -52 -5 -3 -10 -1 -10 4 0 17 -37 13 -44 -5 -10
-27 -20 -7 -18 36 2 30 -1 40 -13 40 -18 0 -19 5 -5 31 11 20 19 23 44 13z
m-1924 -104 c5 8 10 10 10 4 0 -6 -7 -17 -15 -24 -8 -7 -15 -10 -15 -7 0 3 -3
14 -6 24 -5 15 -4 16 5 3 10 -13 12 -13 21 0z m1950 -31 c0 -6 -4 -7 -10 -4
-5 3 -10 11 -10 16 0 6 5 7 10 4 6 -3 10 -11 10 -16z"/>
<path d="M6880 12181 c0 -12 5 -21 10 -21 6 0 10 6 10 14 0 8 -4 18 -10 21 -5
3 -10 -3 -10 -14z"/>
<path d="M8536 13645 c-14 -11 -56 -132 -108 -310 -11 -38 -24 -80 -28 -91 -5
-12 -16 -52 -25 -90 -10 -38 -27 -100 -40 -139 -13 -38 -27 -86 -31 -105 -4
-19 -9 -39 -11 -45 -1 -5 -12 -41 -22 -80 -24 -82 -43 -145 -71 -235 -11 -36
-27 -87 -35 -115 -8 -27 -33 -115 -56 -194 -23 -79 -44 -161 -46 -182 -3 -21
-12 -44 -19 -50 -8 -6 -14 -20 -14 -30 0 -18 -17 -87 -46 -184 -8 -27 -21 -73
-28 -102 -8 -28 -17 -56 -20 -61 -5 -8 -30 -102 -95 -357 -5 -16 -16 -48 -26
-70 -10 -22 -21 -58 -26 -80 -5 -22 -14 -66 -20 -98 -14 -64 -6 -84 29 -73 34
11 101 147 102 206 0 14 12 70 26 125 14 55 32 129 40 165 13 61 53 191 124
410 31 92 48 157 71 270 7 30 17 64 24 75 11 17 47 140 104 355 7 25 12 54 12
64 0 11 7 24 15 31 8 6 28 60 43 120 16 61 36 130 45 154 9 24 30 110 46 192
16 81 36 161 44 178 9 16 16 39 16 50 0 11 6 40 14 63 8 24 19 62 26 86 6 24
17 42 25 42 7 0 35 -30 60 -67 26 -38 69 -95 97 -128 27 -33 59 -78 70 -100
12 -22 29 -46 39 -53 10 -7 28 -33 41 -58 12 -25 30 -50 40 -55 9 -5 27 -27
39 -49 13 -22 26 -40 31 -40 4 0 8 -7 8 -15 0 -8 9 -19 20 -25 11 -6 20 -16
20 -23 0 -7 12 -23 25 -36 14 -13 25 -32 25 -42 0 -10 7 -19 15 -19 8 0 15 -5
15 -11 0 -11 21 -39 88 -118 17 -21 32 -41 32 -45 0 -14 64 -76 78 -76 22 0
70 55 141 162 68 103 174 252 236 331 192 249 251 326 287 380 55 81 83 111
97 103 13 -8 51 -129 51 -161 0 -12 11 -60 26 -106 14 -46 29 -100 34 -119 30
-121 101 -393 113 -430 18 -56 31 -106 51 -190 9 -36 18 -74 21 -85 5 -22 30
-107 50 -170 7 -22 16 -59 20 -82 4 -24 11 -45 16 -49 5 -3 9 -20 9 -38 0 -33
21 -112 93 -346 20 -63 54 -185 76 -270 23 -85 52 -193 66 -239 14 -46 25 -94
25 -106 0 -13 7 -52 16 -86 9 -34 17 -78 17 -96 1 -47 57 -113 83 -97 36 21
38 39 15 112 -13 39 -21 75 -18 79 3 5 -1 29 -9 53 -8 24 -26 96 -40 159 -14
64 -31 130 -38 146 -28 62 -66 194 -86 295 -21 107 -33 151 -55 205 -40 98
-77 215 -100 325 -15 69 -35 152 -45 185 -11 33 -30 110 -44 170 -15 61 -41
153 -60 205 -60 167 -134 444 -140 522 -2 26 -6 50 -9 55 -3 4 -8 26 -12 48
-4 22 -11 45 -15 50 -4 6 -13 34 -20 63 -20 84 -77 105 -132 48 -93 -95 -197
-222 -254 -311 -18 -29 -39 -59 -46 -66 -7 -8 -30 -39 -50 -69 -20 -30 -52
-71 -71 -90 -37 -39 -93 -119 -105 -149 -10 -27 -184 -219 -199 -220 -7 -1
-13 -5 -13 -11 0 -14 -11 -12 -34 5 -11 8 -16 18 -13 22 4 4 13 1 19 -5 7 -7
16 -12 20 -12 17 0 7 22 -25 54 -33 33 -47 53 -195 281 -39 61 -84 125 -99
143 -16 19 -33 46 -38 62 -6 15 -28 48 -50 74 -105 122 -126 147 -188 225 -37
46 -71 89 -75 96 -10 17 -67 24 -86 10z m74 -25 c0 -5 -5 -10 -11 -10 -5 0 -7
5 -4 10 3 6 8 10 11 10 2 0 4 -4 4 -10z m1507 -24 c-8 -9 -24 -12 -37 -9 -16
4 -18 8 -8 14 7 5 23 9 36 9 20 0 22 -2 9 -14z m-1557 -27 c0 -4 -6 -12 -14
-18 -7 -6 -16 -29 -20 -50 -3 -23 -13 -41 -22 -45 -25 -10 -26 -2 -5 26 13 16
18 33 14 48 -5 17 -3 21 7 15 10 -6 12 0 8 22 -4 28 -2 30 14 19 10 -6 18 -14
18 -17z m1490 7 c0 -2 -8 -10 -17 -17 -16 -13 -17 -12 -4 4 13 16 21 21 21 13z
m-1367 -90 c2 3 7 -7 9 -21 8 -38 -3 -30 -45 33 l-39 57 35 -37 c20 -20 38
-34 40 -32z m1306 17 c-13 -15 -28 -31 -33 -34 -5 -4 -5 -12 -1 -19 5 -9 4
-11 -3 -6 -18 11 -15 19 19 54 38 39 52 42 18 5z m185 -48 c2 -17 1 -23 -1
-15 -3 8 -12 20 -21 26 -9 6 -12 16 -7 23 10 18 24 1 29 -34z m-1439 -5 c10
-11 14 -20 9 -20 -5 0 -15 9 -22 20 -7 11 -11 20 -9 20 2 0 12 -9 22 -20z
m1189 -36 c-9 -13 -20 -24 -25 -24 -13 0 1 28 17 34 9 3 12 11 8 17 -4 8 -3 9
4 5 9 -5 7 -14 -4 -32z m233 -6 c-3 -8 -6 -5 -6 6 -1 11 2 17 5 13 3 -3 4 -12
1 -19z m-1667 -27 c0 -34 -25 -87 -45 -95 -21 -8 -19 6 6 33 11 12 18 29 15
37 -3 7 -1 14 5 14 5 0 7 11 3 26 -5 19 -4 25 5 20 6 -4 11 -20 11 -35z m283
13 c-7 -19 -10 -18 -16 5 -3 13 -1 18 9 14 7 -2 10 -11 7 -19z m-25 -3 c3 -8
-1 -12 -9 -9 -7 2 -15 10 -17 17 -3 8 1 12 9 9 7 -2 15 -10 17 -17z m1438 -12
c3 -6 0 -15 -7 -20 -11 -6 -11 -11 -1 -21 9 -9 12 -9 12 2 0 10 3 11 10 4 11
-11 3 -44 -10 -44 -7 0 -40 71 -40 85 0 10 29 5 36 -6z m-1356 -45 c0 -4 -7
-1 -15 6 -12 10 -15 10 -15 -1 0 -16 39 -44 56 -41 6 1 21 -9 34 -23 l23 -25
-41 0 c-31 0 -42 4 -42 15 0 8 -5 15 -10 15 -6 0 -15 10 -20 23 -6 12 -16 30
-22 40 -20 27 8 41 33 16 11 -11 19 -22 19 -25z m1033 -6 c-15 -15 -29 -25
-32 -22 -3 3 4 13 17 21 23 16 32 40 10 27 -9 -5 -8 -2 1 10 11 13 16 14 22 4
5 -8 -2 -23 -18 -40z m355 -93 c-7 -8 -38 23 -38 38 0 6 10 2 22 -10 12 -13
19 -25 16 -28z m-408 21 c0 -2 -7 -7 -16 -10 -8 -3 -12 -2 -9 4 6 10 25 14 25
6z m-1367 -50 c-7 -51 -13 -59 -13 -18 0 16 -2 37 -5 45 -4 8 0 14 9 14 13 0
14 -8 9 -41z m482 -33 c2 -28 0 -30 -16 -20 -17 11 -17 12 -1 30 16 18 16 19
-8 16 -14 -2 -33 3 -43 11 -17 14 -16 15 15 20 38 6 52 -8 53 -57z m835 29 c0
-5 -13 -24 -30 -42 -16 -18 -30 -38 -30 -43 0 -6 -2 -8 -5 -5 -7 7 16 58 26
58 4 0 11 9 14 20 6 19 25 28 25 12z m-1353 -44 c-3 -7 -5 -2 -5 12 0 14 2 19
5 13 2 -7 2 -19 0 -25z m564 -10 c13 -17 17 -28 8 -23 -24 14 -49 38 -49 47 0
18 20 7 41 -24z m1265 5 c-10 -10 -19 5 -10 18 6 11 8 11 12 0 2 -7 1 -15 -2
-18z m-1810 -30 c-10 -10 -19 5 -10 18 6 11 8 11 12 0 2 -7 1 -15 -2 -18z m-6
-32 c0 -9 -8 -27 -17 -40 -10 -15 -11 -21 -3 -16 10 6 12 1 6 -26 -10 -56 -50
-137 -68 -142 -20 -6 -24 18 -8 43 8 13 10 12 10 -3 0 -10 5 -15 10 -12 7 4 7
12 0 25 -5 10 -10 27 -10 36 0 14 3 15 12 6 20 -20 25 -14 20 20 -4 28 -6 30
-13 13 -6 -16 -8 -16 -8 -3 -1 9 2 24 5 33 6 13 9 14 16 3 6 -9 8 -6 7 12 -2
42 0 50 16 44 17 -7 21 11 5 21 -5 3 -10 11 -10 17 0 7 6 6 15 -2 8 -7 15 -20
15 -29z m556 21 c24 -13 79 -81 71 -88 -3 -3 -14 -1 -25 5 -11 6 -22 8 -24 5
-3 -2 -11 2 -18 11 -8 10 -9 15 -1 15 6 0 11 -5 11 -12 0 -9 3 -9 11 -1 14 14
-33 65 -53 58 -8 -3 -20 1 -27 9 -10 12 -8 14 11 12 13 -2 33 -8 44 -14z
m1284 -22 c0 -5 -4 -12 -10 -15 -5 -3 -10 -4 -10 -1 0 2 -3 12 -6 20 -5 12 -2
15 10 10 9 -3 16 -10 16 -14z m-592 -10 c-7 -10 -14 -17 -17 -15 -4 4 18 35
25 35 2 0 -1 -9 -8 -20z m-28 -35 c0 -8 -7 -15 -15 -15 -8 0 -15 -7 -15 -15 0
-8 -4 -15 -10 -15 -16 0 -12 13 13 37 27 27 27 27 27 8z m646 -59 c-2 -6 -5
-3 -5 7 -1 10 -5 16 -9 13 -5 -3 -9 9 -9 27 l0 32 14 -34 c8 -18 12 -38 9 -45z
m-1221 14 c3 -5 -1 -10 -9 -10 -9 0 -16 5 -16 10 0 6 4 10 9 10 6 0 13 -4 16
-10z m500 -65 c-15 -20 -30 -34 -33 -31 -3 3 2 14 11 24 10 10 14 22 10 27 -5
4 -3 5 3 2 7 -4 15 0 18 9 4 9 9 14 13 11 3 -4 -7 -23 -22 -42z m-499 21 c3
-8 12 -12 20 -9 8 3 14 -1 14 -11 0 -9 -6 -16 -12 -16 -16 1 -53 50 -38 50 6
0 13 -6 16 -14z m1235 -72 c-5 -22 -9 -29 -10 -17 -1 12 -4 29 -8 39 -4 12 -3
15 5 10 8 -4 12 0 13 11 0 10 3 13 5 7 2 -6 0 -28 -5 -50z m-1186 17 c-3 -6
-11 -11 -17 -11 -6 0 -6 6 2 15 14 17 26 13 15 -4z m1202 -33 c-3 -8 -6 -5 -6
6 -1 11 2 17 5 13 3 -3 4 -12 1 -19z m-1161 -10 c10 -12 13 -18 7 -14 -8 4
-13 2 -13 -5 0 -7 -8 -5 -20 6 -11 10 -20 22 -20 27 0 16 27 8 46 -14z m338
-22 c-3 -9 -10 -16 -16 -16 -5 0 -7 -4 -4 -9 3 -5 -2 -15 -12 -22 -15 -12 -16
-12 -5 2 7 9 10 19 6 22 -3 4 2 15 13 26 22 21 27 21 18 -3z m-1169 -59 c7
-67 6 -69 -14 -62 -17 5 -21 2 -21 -14 0 -28 -11 -52 -21 -45 -5 3 -9 -7 -8
-23 0 -25 1 -26 10 -8 8 17 9 17 4 -5 -2 -14 -5 -33 -5 -43 0 -9 -9 -25 -20
-34 -11 -10 -20 -23 -20 -31 0 -7 -4 -10 -10 -7 -14 9 -12 21 6 39 8 9 12 20
9 26 -10 16 6 34 17 19 5 -9 6 0 2 24 -4 26 -2 44 10 62 9 14 14 30 11 34 -3
5 2 16 10 24 8 9 15 28 15 44 0 28 10 76 15 71 1 -2 6 -34 10 -71z m35 59 c0
-15 -18 -31 -26 -23 -7 7 7 37 17 37 5 0 9 -6 9 -14z m1967 -18 c-9 -5 -9 -10
1 -20 14 -14 17 -52 3 -44 -12 8 -22 63 -14 82 4 12 7 13 14 3 5 -8 3 -17 -4
-21z m-1132 -38 c2 -27 1 -29 -10 -13 -9 13 -10 22 -3 30 7 9 7 13 -1 13 -6 0
-11 5 -11 12 0 26 23 -12 25 -42z m218 -24 c-10 -13 -20 -22 -22 -20 -4 4 29
44 36 44 2 0 -4 -11 -14 -24z m-163 -12 c0 -1 -3 -9 -6 -18 -5 -12 -10 -13
-25 -5 -24 12 -18 25 10 25 12 0 21 -1 21 -2z m135 -68 c-38 -49 -66 -69 -78
-57 -8 8 -6 11 6 11 19 0 23 15 7 25 -6 4 -1 14 12 25 16 13 25 15 30 7 4 -6
10 -8 14 -4 4 3 2 13 -4 20 -16 19 -4 28 18 15 17 -11 17 -13 -5 -42z m972 -8
c-3 -8 -6 -5 -6 6 -1 11 2 17 5 13 3 -3 4 -12 1 -19z m-1077 -13 c11 -13 10
-14 -4 -9 -9 3 -16 10 -16 15 0 13 6 11 20 -6z m1104 -38 c-3 -9 -10 -17 -15
-17 -11 0 -12 34 -2 44 11 11 24 -9 17 -27z m26 -22 c0 -8 -4 -15 -10 -15 -5
0 -7 7 -4 15 4 8 8 15 10 15 2 0 4 -7 4 -15z m0 -55 c0 -5 -5 -10 -11 -10 -5
0 -7 5 -4 10 3 6 8 10 11 10 2 0 4 -4 4 -10z m-2169 -73 c-6 -6 -11 -22 -12
-36 l0 -26 -10 25 c-8 20 -12 22 -19 10 -11 -17 -13 -5 -4 26 4 15 11 20 25
17 13 -4 19 0 20 13 1 18 1 18 6 0 3 -10 0 -23 -6 -29z m2179 -3 c0 -8 -4 -12
-10 -9 -5 3 -10 10 -10 16 0 5 5 9 10 9 6 0 10 -7 10 -16z m-2217 -127 c-17
-77 -27 -87 -19 -22 l6 50 -14 -40 c-12 -35 -14 -37 -15 -13 -1 15 4 39 11 55
6 15 10 32 9 36 -1 5 3 6 9 2 5 -3 10 0 10 7 0 10 2 10 9 -1 5 -8 3 -38 -6
-74z m2227 62 c0 -6 -4 -7 -10 -4 -5 3 -10 11 -10 16 0 6 5 7 10 4 6 -3 10
-11 10 -16z m39 -19 c0 -10 -3 -8 -9 5 -12 27 -12 43 0 25 5 -8 9 -22 9 -30z
m-2289 -139 c0 -6 -4 -11 -10 -11 -5 0 -10 7 -10 16 0 8 -4 12 -10 9 -11 -7
-14 8 -4 18 8 7 34 -17 34 -32z m-28 -32 c-1 -13 -4 -32 -5 -41 -2 -22 -33
-19 -33 3 0 10 5 17 11 16 5 -1 10 10 10 26 -1 15 4 26 10 24 5 -2 9 -15 7
-28z m2325 -1 c-3 -8 -6 -5 -6 6 -1 11 2 17 5 13 3 -3 4 -12 1 -19z m-2351
-118 c-5 -56 -9 -66 -36 -80 -17 -9 -19 -8 -11 12 5 13 14 22 19 21 5 -1 12 7
15 18 4 16 3 18 -9 8 -11 -9 -14 -9 -14 1 0 7 8 19 18 27 9 8 11 12 5 8 -8 -4
-13 0 -13 10 0 9 5 13 10 10 6 -3 10 -1 10 4 0 6 2 11 5 11 3 0 3 -22 1 -50z
m-24 -115 c-2 -14 -8 -25 -13 -25 -10 0 -11 12 -3 34 10 25 22 19 16 -9z m-32
-19 c0 -13 4 -26 9 -28 4 -1 0 -25 -11 -53 -10 -27 -15 -36 -12 -20 8 44 8 67
0 98 -6 18 -4 27 3 27 6 0 11 -11 11 -24z m-28 -74 c-5 -31 -5 -56 0 -67 6 -9
7 -19 4 -22 -3 -4 -6 -1 -6 7 0 10 -4 10 -17 -1 -15 -12 -16 -12 -11 2 4 10
12 45 19 78 6 34 14 60 16 57 2 -2 0 -26 -5 -54z m-2 -112 c0 -5 -10 -10 -22
-9 -22 0 -22 1 -3 9 11 5 21 9 23 9 1 1 2 -3 2 -9z m-51 -69 c-5 -24 -7 -51
-4 -61 3 -11 0 -20 -10 -24 -17 -6 -18 -3 -6 44 5 19 12 48 16 64 3 15 8 27
10 24 2 -2 -1 -23 -6 -47z m28 -1 c-6 -22 -15 -40 -20 -40 -5 0 -6 8 -2 18 4
9 10 27 12 40 3 12 9 22 13 22 4 0 2 -18 -3 -40z m-63 -161 c-2 -66 -13 -93
-16 -38 -2 53 4 99 15 99 1 0 2 -27 1 -61z m13 9 c-3 -8 -6 -5 -6 6 -1 11 2
17 5 13 3 -3 4 -12 1 -19z m-37 -112 c-16 -16 -22 0 -14 36 l7 33 8 -30 c5
-17 5 -33 -1 -39z m-3 -38 c-3 -8 -6 -5 -6 6 -1 11 2 17 5 13 3 -3 4 -12 1
-19z m-25 -23 c-6 -34 -12 -32 -12 6 0 16 4 28 9 25 4 -3 6 -17 3 -31z m5 -57
c-3 -8 -6 -5 -6 6 -1 11 2 17 5 13 3 -3 4 -12 1 -19z m-26 -68 c14 0 11 -47
-3 -52 -19 -7 -39 2 -32 14 4 6 10 5 15 -3 6 -9 8 4 6 36 -3 28 -2 40 0 28 2
-13 9 -23 14 -23z m19 22 c0 -15 -2 -15 -10 -2 -13 20 -13 33 0 25 6 -3 10
-14 10 -23z m-68 -114 c-7 -7 -12 -8 -12 -2 0 14 12 26 19 19 2 -3 -1 -11 -7
-17z m48 18 c0 -3 -4 -8 -10 -11 -5 -3 -10 -1 -10 4 0 6 5 11 10 11 6 0 10 -2
10 -4z m-13 -62 c-2 -2 -12 -1 -22 2 -17 7 -17 8 1 21 17 12 19 12 22 -2 2 -9
2 -19 -1 -21z m-17 -49 c0 -7 -9 -15 -20 -18 -11 -3 -20 -1 -20 3 0 5 -3 15
-6 23 -4 11 1 13 20 10 14 -3 26 -11 26 -18z m-26 -56 c-4 -8 -10 -7 -16 2 -6
10 -7 7 -3 -8 5 -17 2 -23 -9 -23 -11 0 -13 6 -7 28 4 15 6 33 3 41 -2 7 5 4
17 -8 12 -12 19 -27 15 -32z"/>
<path d="M8382 12980 c0 -14 2 -19 5 -12 2 6 2 18 0 25 -3 6 -5 1 -5 -13z"/>
<path d="M8311 12734 c0 -11 3 -14 6 -6 3 7 2 16 -1 19 -3 4 -6 -2 -5 -13z"/>
<path d="M9340 12665 c0 -8 5 -15 10 -15 6 0 10 7 10 15 0 8 -4 15 -10 15 -5
0 -10 -7 -10 -15z"/>
<path d="M12188 13639 c-10 -5 -18 -19 -18 -30 0 -11 -11 -42 -25 -69 -14 -27
-25 -54 -25 -60 0 -6 -13 -38 -30 -71 -16 -33 -29 -60 -28 -62 2 -8 -34 -114
-45 -131 -8 -12 -20 -39 -27 -61 -7 -22 -16 -44 -20 -50 -4 -5 -11 -26 -15
-45 -4 -19 -10 -39 -14 -45 -4 -5 -13 -30 -21 -55 -7 -25 -19 -54 -26 -66 -7
-11 -19 -43 -27 -70 -8 -27 -24 -69 -35 -94 -12 -25 -32 -79 -46 -120 -14 -41
-35 -100 -47 -130 -11 -30 -23 -64 -26 -75 -3 -11 -9 -24 -13 -30 -9 -11 -43
-102 -101 -270 -21 -60 -43 -119 -49 -130 -18 -36 -80 -199 -80 -213 0 -7 -4
-20 -9 -30 -23 -45 -46 -113 -42 -121 2 -2 -2 -7 -7 -10 -5 -3 -31 -69 -57
-146 -26 -77 -51 -144 -56 -149 -5 -6 -9 -18 -9 -28 0 -10 -5 -18 -11 -18 -5
0 -9 -9 -7 -19 2 -10 -4 -27 -13 -37 -9 -11 -35 -68 -58 -129 -24 -60 -47
-118 -52 -128 -12 -22 14 -57 42 -57 55 0 127 125 159 277 25 117 67 257 91
304 10 21 19 46 19 56 0 10 15 57 34 103 18 47 70 182 116 300 45 118 90 235
100 260 65 161 140 359 140 369 0 9 13 10 48 4 50 -9 606 -7 659 2 37 7 61
-13 70 -56 3 -16 9 -29 14 -29 5 0 9 -11 9 -24 0 -14 5 -28 10 -31 6 -3 10
-19 10 -34 0 -15 7 -36 15 -47 8 -10 15 -26 15 -34 0 -8 12 -37 26 -64 14 -27
35 -76 46 -110 11 -34 31 -88 45 -121 29 -70 26 -61 91 -230 28 -71 54 -142
58 -157 3 -16 9 -28 13 -28 3 0 12 -19 19 -42 7 -24 38 -104 67 -178 30 -74
63 -160 73 -190 99 -283 99 -282 126 -278 32 5 25 57 -21 168 -22 52 -43 110
-46 129 -4 19 -16 52 -26 75 -10 23 -35 86 -56 141 -20 55 -45 120 -55 145
-43 107 -170 430 -190 485 -13 33 -29 74 -36 90 -7 17 -17 46 -23 65 -23 83
-130 360 -147 380 -13 16 -85 215 -115 318 -10 35 -29 86 -42 115 -14 29 -50
113 -82 187 -31 74 -64 153 -74 175 -10 22 -30 83 -46 135 -36 119 -66 149
-117 119z m62 -134 c0 -14 13 -54 29 -90 16 -35 32 -78 36 -96 4 -19 11 -40
15 -49 4 -8 15 -31 23 -50 8 -19 20 -46 26 -60 6 -14 27 -70 47 -125 19 -55
42 -115 50 -133 16 -35 82 -205 91 -234 8 -26 -5 -54 -19 -40 -7 7 -107 9
-341 5 l-330 -6 7 29 c4 16 21 58 38 94 17 36 37 83 44 104 8 22 18 44 23 50
5 6 16 38 26 71 9 33 36 96 59 140 23 44 48 103 56 130 7 28 22 66 32 86 10
19 23 62 28 95 18 100 19 104 40 104 15 0 20 -7 20 -25z m47 -57 c-3 -8 -6 -5
-6 6 -1 11 2 17 5 13 3 -3 4 -12 1 -19z m43 -103 c0 -5 -5 -3 -10 5 -5 8 -10
20 -10 25 0 6 5 3 10 -5 5 -8 10 -19 10 -25z m84 -190 c3 -8 1 -15 -4 -15 -6
0 -10 7 -10 15 0 8 2 15 4 15 2 0 6 -7 10 -15z m134 -354 c3 -8 -1 -12 -9 -9
-7 2 -15 10 -17 17 -3 8 1 12 9 9 7 -2 15 -10 17 -17z m336 -877 c3 -8 2 -12
-4 -9 -6 3 -10 10 -10 16 0 14 7 11 14 -7z m-1323 -31 c-12 -20 -14 -14 -5 12
4 9 9 14 11 11 3 -2 0 -13 -6 -23z m-371 -900 c-11 -17 -11 -17 -6 0 3 10 6
24 7 30 0 9 2 9 5 0 3 -7 0 -20 -6 -30z"/>
<path d="M6335 10577 c-16 -12 -17 -23 -11 -80 3 -37 9 -73 12 -80 6 -16 -53
-27 -141 -27 -39 0 -56 -5 -69 -19 -26 -29 -17 -54 24 -63 32 -7 122 -3 161 8
13 3 15 -10 16 -93 1 -131 19 -250 50 -337 37 -99 55 -121 131 -157 56 -27 80
-33 157 -36 108 -4 139 7 143 54 5 49 -30 67 -125 65 -42 -2 -80 -5 -84 -8 -5
-3 -35 19 -66 49 l-56 54 -24 124 c-25 131 -43 260 -37 270 2 3 59 9 126 13
152 9 202 21 223 52 29 44 15 48 -165 40 l-167 -6 -7 31 c-3 17 -6 45 -6 61 0
36 -24 83 -45 92 -21 8 -18 8 -40 -7z m29 -25 c3 -5 -1 -9 -9 -9 -8 0 -15 4
-15 9 0 4 4 8 9 8 6 0 12 -4 15 -8z m13 -46 c-5 -16 -27 -19 -27 -3 0 7 7 14
15 14 9 0 14 -5 12 -11z m238 -126 c19 -8 19 -9 -2 -9 -12 -1 -25 4 -28 9 -7
12 2 12 30 0z m75 0 c-19 -13 -30 -13 -30 0 0 6 10 10 23 10 18 0 19 -2 7 -10z
m44 1 c7 -11 -49 -35 -66 -28 -7 3 -3 6 10 6 12 1 25 8 28 16 7 17 20 20 28 6z
m-564 -31 c0 -5 -9 -10 -21 -10 -11 0 -17 5 -14 10 3 6 13 10 21 10 8 0 14 -4
14 -10z m285 -420 c3 -5 1 -10 -4 -10 -6 0 -11 5 -11 10 0 6 2 10 4 10 3 0 8
-4 11 -10z m75 -100 c0 -5 -12 -10 -27 -9 l-28 1 25 8 c14 4 26 8 28 9 1 1 2
-3 2 -9z m-85 -20 c3 -5 1 -10 -4 -10 -6 0 -11 5 -11 10 0 6 2 10 4 10 3 0 8
-4 11 -10z m298 -27 c-7 -2 -21 -2 -30 0 -10 3 -4 5 12 5 17 0 24 -2 18 -5z
m45 -21 c2 -7 -1 -19 -8 -27 -10 -13 -14 -13 -27 0 -8 8 -30 15 -49 15 -30 0
-42 8 -30 21 11 10 110 2 114 -9z m-172 -19 c-4 -22 -23 -28 -42 -12 -12 10
-12 14 -2 20 23 15 46 10 44 -8z"/>
<path d="M4153 10531 c-114 -54 -226 -202 -250 -331 -13 -72 1 -197 30 -256
29 -58 125 -151 165 -160 15 -3 38 -11 51 -17 14 -7 59 -11 110 -9 150 4 202
19 255 71 54 53 66 52 66 -1 0 -63 10 -74 49 -54 l31 17 -5 371 c-2 204 -8
375 -12 379 -5 4 -16 1 -27 -6 -15 -12 -18 -24 -14 -75 2 -33 2 -60 -1 -60 -3
0 -25 22 -47 48 -23 27 -68 62 -102 80 -54 29 -68 32 -148 32 -78 0 -97 -4
-151 -29z m197 -21 c18 -12 2 -12 -25 0 -13 6 -15 9 -5 9 8 0 22 -4 30 -9z
m290 0 c0 -5 -5 -10 -11 -10 -5 0 -7 5 -4 10 3 6 8 10 11 10 2 0 4 -4 4 -10z
m-220 -51 c83 -42 145 -136 144 -219 0 -96 -26 -203 -62 -260 -69 -110 -103
-130 -222 -130 -152 0 -234 63 -282 219 -33 106 -9 203 74 313 69 89 247 129
348 77z m170 -149 c0 -5 -2 -10 -4 -10 -3 0 -8 5 -11 10 -3 6 -1 10 4 10 6 0
11 -4 11 -10z"/>
<path d="M1922 10528 c-18 -36 -30 -415 -18 -613 2 -44 5 -90 5 -102 2 -36 46
-31 66 7 19 36 37 314 24 369 -23 100 68 199 218 238 64 17 141 10 150 -13 3
-8 13 -14 22 -14 37 0 88 -48 104 -97 18 -55 42 -383 34 -454 -6 -46 -5 -48
25 -58 43 -15 78 -14 84 3 8 20 -14 398 -27 476 -18 110 -31 141 -79 189 -47
48 -68 61 -137 81 -92 28 -263 -9 -350 -76 -47 -35 -65 -27 -57 27 5 30 3 43
-7 50 -24 15 -45 10 -57 -13z"/>
<path d="M10753 10521 c-52 -18 -62 -24 -116 -71 -16 -14 -34 -25 -39 -25 -6
0 -17 22 -25 48 -16 54 -28 62 -66 48 -45 -17 -48 -35 -37 -223 28 -472 33
-534 42 -545 16 -19 53 -16 73 7 20 22 22 80 5 140 -13 46 -13 235 0 282 6 21
16 43 23 50 7 7 19 26 27 42 26 51 95 114 139 127 60 18 187 0 280 -40 66 -28
76 -30 90 -17 13 14 13 19 0 42 -38 73 -117 122 -225 143 -79 15 -108 13 -171
-8z m37 -45 c0 -2 -7 -6 -15 -10 -8 -3 -15 -1 -15 4 0 6 7 10 15 10 8 0 15 -2
15 -4z m-56 -34 c3 -4 -8 -13 -25 -19 -33 -13 -38 -7 -11 13 20 16 29 17 36 6z"/>
<path d="M8764 10519 c-3 -6 -8 -93 -10 -193 -3 -197 -17 -279 -61 -372 -52
-110 -124 -154 -253 -154 -54 0 -59 2 -104 47 -26 25 -56 63 -66 83 -30 59
-50 164 -51 268 -1 163 -13 269 -34 292 -18 20 -50 27 -59 12 -9 -15 -10 -104
-3 -187 4 -44 9 -128 12 -186 5 -118 25 -206 62 -285 20 -43 37 -61 91 -96 65
-43 67 -43 169 -46 89 -3 109 -1 147 18 48 23 116 86 116 107 0 7 7 13 16 13
12 0 15 -6 10 -23 -9 -38 11 -92 40 -105 35 -17 52 -15 57 6 3 9 4 186 3 394
-1 354 -2 377 -20 397 -21 23 -51 28 -62 10z m46 -29 c8 -5 12 -11 10 -14 -3
-2 -14 2 -24 10 -22 15 -10 19 14 4z m-640 -21 c0 -5 -4 -9 -10 -9 -5 0 -10 7
-10 16 0 8 5 12 10 9 6 -3 10 -10 10 -16z m30 -315 c0 -8 -5 -12 -10 -9 -6 4
-8 11 -5 16 9 14 15 11 15 -7z m550 -251 c-1 -18 -19 -35 -29 -28 -9 5 -9 10
0 21 12 15 29 19 29 7z m-406 -88 c16 -12 17 -15 4 -15 -8 0 -21 7 -28 15 -16
19 -1 19 24 0z m252 -20 c-23 -17 -36 -19 -36 -6 0 11 18 19 40 20 11 0 10 -3
-4 -14z m-196 -55 c0 -5 -9 -10 -19 -10 -11 0 -23 5 -26 10 -4 6 5 10 19 10
14 0 26 -4 26 -10z"/>
<path d="M12760 10502 c-121 -41 -165 -68 -212 -130 -25 -32 -55 -86 -67 -120
-49 -144 -10 -328 94 -436 42 -45 64 -58 138 -84 84 -30 95 -32 236 -32 141 0
148 1 169 23 12 13 22 28 22 34 0 7 -51 13 -142 16 -174 7 -239 18 -297 48
-50 27 -97 85 -110 138 -20 75 -33 153 -27 159 7 6 81 -6 206 -33 180 -40 345
13 404 130 32 63 50 150 36 176 -15 27 -56 66 -102 97 -38 25 -49 27 -167 29
-101 3 -137 -1 -181 -15z m276 -76 c33 -16 56 -35 69 -59 17 -33 18 -37 1 -70
-26 -56 -77 -104 -126 -118 -25 -8 -81 -14 -125 -13 -67 0 -89 4 -135 28 -30
15 -70 39 -88 53 -36 27 -36 49 -1 87 11 11 19 23 19 28 0 13 111 61 170 74
91 20 160 17 216 -10z"/>
<path d="M8154 7955 c-4 -8 -3 -22 0 -31 3 -8 2 -13 -3 -10 -15 10 -21 -23
-21 -120 l0 -94 -36 -32 c-44 -41 -188 -139 -234 -160 -35 -17 -93 -32 -162
-43 -65 -10 -41 -35 34 -35 44 0 210 62 243 90 11 10 30 21 42 24 12 4 37 18
57 31 19 13 38 20 41 15 3 -5 1 -47 -5 -92 -11 -88 -32 -310 -55 -573 -7 -88
-18 -198 -25 -244 -6 -46 -9 -105 -5 -130 3 -27 0 -75 -8 -114 -8 -38 -12 -77
-9 -89 2 -11 0 -23 -5 -27 -6 -3 -13 -58 -17 -121 -9 -164 -9 -165 -26 -166
-8 0 -35 -9 -60 -20 -63 -29 -175 -64 -203 -64 -34 0 -50 -22 -34 -44 27 -37
219 -2 264 49 12 14 25 25 28 25 8 0 2 -50 -14 -130 -7 -30 -16 -93 -20 -140
-18 -179 -63 -474 -81 -535 -5 -16 -14 -68 -19 -115 -6 -47 -15 -100 -20 -118
-6 -19 -17 -106 -26 -195 -9 -89 -27 -207 -41 -262 -13 -56 -24 -125 -24 -155
0 -55 -33 -308 -51 -388 -5 -23 -9 -59 -9 -80 0 -20 -7 -45 -15 -56 -20 -27
-34 -106 -39 -226 -4 -105 -43 -346 -71 -450 -9 -30 -18 -115 -21 -189 -2 -73
-10 -143 -16 -155 -11 -20 -12 -20 -20 9 -5 17 -8 44 -7 60 3 39 -9 109 -26
160 -8 22 -16 69 -20 105 -9 95 -12 112 -24 144 -9 21 -9 38 -1 62 9 27 8 45
-4 87 -9 29 -15 67 -15 83 0 16 -3 55 -7 88 -5 40 -3 60 5 65 7 5 12 16 12 27
1 50 -25 230 -47 325 -19 81 -24 132 -24 220 1 186 1 192 -11 231 -9 29 -9 44
0 67 11 24 10 35 -4 65 -9 20 -17 46 -17 58 2 83 16 258 21 258 3 0 14 -7 24
-14 10 -8 26 -12 37 -9 10 3 40 -10 71 -31 47 -32 61 -36 116 -36 69 0 93 6
93 25 0 18 -69 61 -134 84 -31 11 -69 29 -85 40 -16 12 -38 21 -49 21 -11 0
-25 7 -32 15 -6 8 -17 13 -23 12 -8 -1 -10 23 -8 78 3 81 3 133 0 183 -1 15
-6 101 -11 192 -6 91 -12 215 -13 275 -4 130 -22 276 -35 289 -6 6 -10 29 -10
51 0 23 -3 45 -7 49 -5 4 -9 22 -9 39 -1 18 -7 50 -13 73 -7 26 -7 60 -2 95 6
34 5 83 -1 132 -14 95 -6 108 45 83 19 -9 40 -16 46 -16 6 0 37 -9 68 -19 89
-30 124 -30 153 -1 30 30 25 47 -17 55 -20 4 -84 27 -141 51 -58 25 -122 50
-142 57 -35 10 -39 15 -45 57 -9 70 -25 139 -47 209 -15 49 -19 79 -14 121 5
45 2 71 -18 131 -36 112 -45 164 -44 274 1 55 -4 123 -10 150 -6 28 -16 77
-21 110 -17 110 -29 139 -57 128 -9 -3 -14 1 -14 11 0 22 -30 33 -41 15 -5 -8
-9 -34 -9 -60 0 -25 -5 -50 -10 -55 -8 -8 -8 -19 0 -38 5 -15 13 -55 16 -89 3
-34 10 -69 15 -80 7 -13 7 -23 -2 -33 -10 -12 -7 -37 14 -127 15 -62 31 -139
36 -172 13 -83 29 -150 52 -220 20 -62 34 -159 45 -305 3 -47 12 -107 20 -134
8 -27 14 -64 14 -81 0 -17 3 -35 7 -39 4 -4 9 -71 10 -149 5 -254 14 -371 31
-389 8 -10 12 -25 8 -34 -3 -9 -1 -23 6 -32 10 -11 13 -84 12 -306 -2 -359 -8
-495 -25 -567 -10 -46 -10 -86 0 -215 6 -88 16 -184 21 -214 12 -72 35 -292
31 -304 -1 -5 5 -26 14 -48 10 -26 15 -72 15 -143 0 -62 6 -121 14 -147 8 -24
16 -68 19 -98 3 -30 13 -118 22 -195 8 -77 18 -198 21 -269 3 -71 10 -139 16
-150 20 -36 29 -97 39 -241 5 -77 16 -168 24 -203 8 -35 15 -101 15 -147 0
-46 4 -117 9 -157 6 -40 12 -104 15 -143 2 -38 10 -113 16 -165 6 -52 10 -129
9 -170 0 -41 1 -169 4 -285 4 -167 10 -231 27 -310 12 -55 24 -134 26 -175 1
-41 6 -95 10 -120 4 -25 8 -63 10 -85 2 -36 4 -370 2 -412 -1 -10 5 -70 11
-133 7 -63 13 -161 12 -218 l-1 -102 29 0 c28 0 30 2 36 58 3 31 13 70 21 85
13 22 14 47 9 120 -4 51 -8 209 -9 352 -2 160 -8 271 -14 287 -8 19 -8 36 -2
54 13 33 13 100 0 144 -6 19 -17 75 -26 125 -8 49 -19 92 -24 95 -10 6 -31
254 -24 300 2 19 7 78 10 130 3 52 11 111 19 131 12 31 12 44 -2 90 -8 30 -19
59 -24 65 -5 6 -6 56 -3 110 4 55 2 115 -3 134 -5 19 -6 51 -1 70 4 19 12 105
18 190 6 90 16 168 24 185 17 36 56 165 56 183 0 6 4 12 8 12 4 0 16 48 25
108 10 59 22 123 27 142 20 77 41 262 44 390 2 83 12 177 25 245 12 61 28 161
36 224 9 62 20 121 25 131 6 10 10 40 10 67 0 26 7 73 16 103 9 30 22 118 29
195 7 77 19 165 28 195 8 30 18 95 21 143 4 49 12 99 18 110 7 12 15 49 19 82
4 33 14 105 23 159 9 55 16 122 16 150 0 28 5 69 11 91 6 22 10 85 9 140 0 55
4 123 10 150 6 28 12 62 14 76 1 14 6 32 11 39 24 38 40 139 36 215 -7 126 -5
176 7 235 22 107 33 210 33 305 0 53 6 131 15 173 8 42 19 154 24 247 19 349
22 379 41 415 13 28 18 62 18 147 1 62 5 122 10 135 11 30 -11 86 -36 94 -10
3 -26 10 -36 15 -13 7 -19 5 -23 -6z m-964 -3349 c0 -8 -4 -18 -10 -21 -5 -3
-10 3 -10 14 0 12 5 21 10 21 6 0 10 -6 10 -14z"/>
</g>
</svg>
